<svg width="1750" height="1104" viewBox="0 0 1750 1104" fill="none" xmlns="http://www.w3.org/2000/svg">
<g filter="url(#filter0_ddddii_9_646)">
<path d="M698.6 338C700.8 338 702.6 336.2 702.6 334V317C702.6 314.8 700.8 313 698.6 313H681.6C679.4 313 677.6 314.8 677.6 317V325.5H471V317C471 314.8 469.2 313 467 313H450C447.8 313 446 314.8 446 317V334C446 336.2 447.8 338 450 338H458.5V544.6H450C447.8 544.6 446 546.4 446 548.6V565.6C446 567.8 447.8 569.6 450 569.6H467C469.2 569.6 471 567.8 471 565.6V557.1H677.6V565.6C677.6 567.8 679.4 569.6 681.6 569.6H698.6C700.8 569.6 702.6 567.8 702.6 565.6V548.6C702.6 546.4 700.8 544.6 698.6 544.6H690.1V338H698.6Z" fill="url(#paint0_linear_9_646)"/>
</g>
<g clip-path="url(#clip0_9_646)">
<path d="M482.1 323.6H478.7C477.9 323.6 477.2 322.9 477.2 322.1V295C477.2 294.2 477.9 293.5 478.7 293.5H482.1C482.9 293.5 483.6 294.2 483.6 295V322.1C483.6 323 482.9 323.6 482.1 323.6Z" fill="#172127"/>
<path d="M492 323.6H488.6C487.8 323.6 487.1 322.9 487.1 322.1V295C487.1 294.2 487.8 293.5 488.6 293.5H492C492.8 293.5 493.5 294.2 493.5 295V322.1C493.5 323 492.8 323.6 492 323.6Z" fill="#172127"/>
<path d="M501.9 323.6H498.5C497.7 323.6 497 322.9 497 322.1V295C497 294.2 497.7 293.5 498.5 293.5H501.9C502.7 293.5 503.4 294.2 503.4 295V322.1C503.4 323 502.7 323.6 501.9 323.6Z" fill="#172127"/>
<path d="M511.8 323.6H508.4C507.6 323.6 506.9 322.9 506.9 322.1V295C506.9 294.2 507.6 293.5 508.4 293.5H511.8C512.6 293.5 513.3 294.2 513.3 295V322.1C513.3 323 512.6 323.6 511.8 323.6Z" fill="#172127"/>
<path d="M521.7 323.6H518.3C517.5 323.6 516.8 322.9 516.8 322.1V295C516.8 294.2 517.5 293.5 518.3 293.5H521.7C522.5 293.5 523.2 294.2 523.2 295V322.1C523.2 323 522.5 323.6 521.7 323.6Z" fill="#172127"/>
<path d="M531.6 323.6H528.2C527.4 323.6 526.7 322.9 526.7 322.1V295C526.7 294.2 527.4 293.5 528.2 293.5H531.6C532.4 293.5 533.1 294.2 533.1 295V322.1C533.1 323 532.4 323.6 531.6 323.6Z" fill="#172127"/>
<path d="M541.5 323.6H538.1C537.3 323.6 536.6 322.9 536.6 322.1V295C536.6 294.2 537.3 293.5 538.1 293.5H541.5C542.3 293.5 543 294.2 543 295V322.1C543 323 542.3 323.6 541.5 323.6Z" fill="#172127"/>
<path d="M551.4 323.6H548C547.2 323.6 546.5 322.9 546.5 322.1V295C546.5 294.2 547.2 293.5 548 293.5H551.4C552.2 293.5 552.9 294.2 552.9 295V322.1C552.9 323 552.2 323.6 551.4 323.6Z" fill="#172127"/>
<path d="M561.3 323.6H557.9C557.1 323.6 556.4 322.9 556.4 322.1V295C556.4 294.2 557.1 293.5 557.9 293.5H561.3C562.1 293.5 562.8 294.2 562.8 295V322.1C562.8 323 562.1 323.6 561.3 323.6Z" fill="#172127"/>
<path d="M571.2 323.6H567.8C567 323.6 566.3 322.9 566.3 322.1V295C566.3 294.2 567 293.5 567.8 293.5H571.2C572 293.5 572.7 294.2 572.7 295V322.1C572.7 323 572 323.6 571.2 323.6Z" fill="#172127"/>
<path d="M581.1 323.6H577.7C576.9 323.6 576.2 322.9 576.2 322.1V295C576.2 294.2 576.9 293.5 577.7 293.5H581.1C581.9 293.5 582.6 294.2 582.6 295V322.1C582.6 323 581.9 323.6 581.1 323.6Z" fill="#172127"/>
<path d="M591 323.6H587.6C586.8 323.6 586.1 322.9 586.1 322.1V295C586.1 294.2 586.8 293.5 587.6 293.5H591C591.8 293.5 592.5 294.2 592.5 295V322.1C592.5 323 591.8 323.6 591 323.6Z" fill="#172127"/>
<path d="M600.9 323.6H597.5C596.7 323.6 596 322.9 596 322.1V295C596 294.2 596.7 293.5 597.5 293.5H600.9C601.7 293.5 602.4 294.2 602.4 295V322.1C602.4 323 601.7 323.6 600.9 323.6Z" fill="#172127"/>
<path d="M610.8 323.6H607.4C606.6 323.6 605.9 322.9 605.9 322.1V295C605.9 294.2 606.6 293.5 607.4 293.5H610.8C611.6 293.5 612.3 294.2 612.3 295V322.1C612.3 323 611.6 323.6 610.8 323.6Z" fill="#172127"/>
<path d="M620.7 323.6H617.3C616.5 323.6 615.8 322.9 615.8 322.1V295C615.8 294.2 616.5 293.5 617.3 293.5H620.7C621.5 293.5 622.2 294.2 622.2 295V322.1C622.2 323 621.5 323.6 620.7 323.6Z" fill="#172127"/>
<path d="M630.6 323.6H627.2C626.4 323.6 625.7 322.9 625.7 322.1V295C625.7 294.2 626.4 293.5 627.2 293.5H630.6C631.4 293.5 632.1 294.2 632.1 295V322.1C632.1 323 631.4 323.6 630.6 323.6Z" fill="#172127"/>
<path d="M640.5 323.6H637.1C636.3 323.6 635.6 322.9 635.6 322.1V295C635.6 294.2 636.3 293.5 637.1 293.5H640.5C641.3 293.5 642 294.2 642 295V322.1C642 323 641.3 323.6 640.5 323.6Z" fill="#172127"/>
<path d="M650.4 323.6H647C646.2 323.6 645.5 322.9 645.5 322.1V295C645.5 294.2 646.2 293.5 647 293.5H650.4C651.2 293.5 651.9 294.2 651.9 295V322.1C651.9 323 651.2 323.6 650.4 323.6Z" fill="#172127"/>
<path d="M660.3 323.6H656.9C656.1 323.6 655.4 322.9 655.4 322.1V295C655.4 294.2 656.1 293.5 656.9 293.5H660.3C661.1 293.5 661.8 294.2 661.8 295V322.1C661.8 323 661.1 323.6 660.3 323.6Z" fill="#172127"/>
<path d="M670.2 323.6H666.8C666 323.6 665.3 322.9 665.3 322.1V295C665.3 294.2 666 293.5 666.8 293.5H670.2C671 293.5 671.7 294.2 671.7 295V322.1C671.7 323 671 323.6 670.2 323.6Z" fill="#172127"/>
<path d="M482.1 589.3H478.7C477.9 589.3 477.2 588.6 477.2 587.8V560.7C477.2 559.9 477.9 559.2 478.7 559.2H482.1C482.9 559.2 483.6 559.9 483.6 560.7V587.8C483.6 588.7 482.9 589.3 482.1 589.3Z" fill="#172127"/>
<path d="M492 589.3H488.6C487.8 589.3 487.1 588.6 487.1 587.8V560.7C487.1 559.9 487.8 559.2 488.6 559.2H492C492.8 559.2 493.5 559.9 493.5 560.7V587.8C493.5 588.7 492.8 589.3 492 589.3Z" fill="#172127"/>
<path d="M501.9 589.3H498.5C497.7 589.3 497 588.6 497 587.8V560.7C497 559.9 497.7 559.2 498.5 559.2H501.9C502.7 559.2 503.4 559.9 503.4 560.7V587.8C503.4 588.7 502.7 589.3 501.9 589.3Z" fill="#172127"/>
<path d="M511.8 589.3H508.4C507.6 589.3 506.9 588.6 506.9 587.8V560.7C506.9 559.9 507.6 559.2 508.4 559.2H511.8C512.6 559.2 513.3 559.9 513.3 560.7V587.8C513.3 588.7 512.6 589.3 511.8 589.3Z" fill="#172127"/>
<path d="M521.7 589.3H518.3C517.5 589.3 516.8 588.6 516.8 587.8V560.7C516.8 559.9 517.5 559.2 518.3 559.2H521.7C522.5 559.2 523.2 559.9 523.2 560.7V587.8C523.2 588.7 522.5 589.3 521.7 589.3Z" fill="#172127"/>
<path d="M531.6 589.3H528.2C527.4 589.3 526.7 588.6 526.7 587.8V560.7C526.7 559.9 527.4 559.2 528.2 559.2H531.6C532.4 559.2 533.1 559.9 533.1 560.7V587.8C533.1 588.7 532.4 589.3 531.6 589.3Z" fill="#172127"/>
<path d="M541.5 589.3H538.1C537.3 589.3 536.6 588.6 536.6 587.8V560.7C536.6 559.9 537.3 559.2 538.1 559.2H541.5C542.3 559.2 543 559.9 543 560.7V587.8C543 588.7 542.3 589.3 541.5 589.3Z" fill="#172127"/>
<path d="M551.4 589.3H548C547.2 589.3 546.5 588.6 546.5 587.8V560.7C546.5 559.9 547.2 559.2 548 559.2H551.4C552.2 559.2 552.9 559.9 552.9 560.7V587.8C552.9 588.7 552.2 589.3 551.4 589.3Z" fill="#172127"/>
<path d="M561.3 589.3H557.9C557.1 589.3 556.4 588.6 556.4 587.8V560.7C556.4 559.9 557.1 559.2 557.9 559.2H561.3C562.1 559.2 562.8 559.9 562.8 560.7V587.8C562.8 588.7 562.1 589.3 561.3 589.3Z" fill="#172127"/>
<path d="M571.2 589.3H567.8C567 589.3 566.3 588.6 566.3 587.8V560.7C566.3 559.9 567 559.2 567.8 559.2H571.2C572 559.2 572.7 559.9 572.7 560.7V587.8C572.7 588.7 572 589.3 571.2 589.3Z" fill="#172127"/>
<path d="M581.1 589.3H577.7C576.9 589.3 576.2 588.6 576.2 587.8V560.7C576.2 559.9 576.9 559.2 577.7 559.2H581.1C581.9 559.2 582.6 559.9 582.6 560.7V587.8C582.6 588.7 581.9 589.3 581.1 589.3Z" fill="#172127"/>
<path d="M591 589.3H587.6C586.8 589.3 586.1 588.6 586.1 587.8V560.7C586.1 559.9 586.8 559.2 587.6 559.2H591C591.8 559.2 592.5 559.9 592.5 560.7V587.8C592.5 588.7 591.8 589.3 591 589.3Z" fill="#172127"/>
<path d="M600.9 589.3H597.5C596.7 589.3 596 588.6 596 587.8V560.7C596 559.9 596.7 559.2 597.5 559.2H600.9C601.7 559.2 602.4 559.9 602.4 560.7V587.8C602.4 588.7 601.7 589.3 600.9 589.3Z" fill="#172127"/>
<path d="M610.8 589.3H607.4C606.6 589.3 605.9 588.6 605.9 587.8V560.7C605.9 559.9 606.6 559.2 607.4 559.2H610.8C611.6 559.2 612.3 559.9 612.3 560.7V587.8C612.3 588.7 611.6 589.3 610.8 589.3Z" fill="#172127"/>
<path d="M620.7 589.3H617.3C616.5 589.3 615.8 588.6 615.8 587.8V560.7C615.8 559.9 616.5 559.2 617.3 559.2H620.7C621.5 559.2 622.2 559.9 622.2 560.7V587.8C622.2 588.7 621.5 589.3 620.7 589.3Z" fill="#172127"/>
<path d="M630.6 589.3H627.2C626.4 589.3 625.7 588.6 625.7 587.8V560.7C625.7 559.9 626.4 559.2 627.2 559.2H630.6C631.4 559.2 632.1 559.9 632.1 560.7V587.8C632.1 588.7 631.4 589.3 630.6 589.3Z" fill="#172127"/>
<path d="M640.5 589.3H637.1C636.3 589.3 635.6 588.6 635.6 587.8V560.7C635.6 559.9 636.3 559.2 637.1 559.2H640.5C641.3 559.2 642 559.9 642 560.7V587.8C642 588.7 641.3 589.3 640.5 589.3Z" fill="#172127"/>
<path d="M650.4 589.3H647C646.2 589.3 645.5 588.6 645.5 587.8V560.7C645.5 559.9 646.2 559.2 647 559.2H650.4C651.2 559.2 651.9 559.9 651.9 560.7V587.8C651.9 588.7 651.2 589.3 650.4 589.3Z" fill="#172127"/>
<path d="M660.3 589.3H656.9C656.1 589.3 655.4 588.6 655.4 587.8V560.7C655.4 559.9 656.1 559.2 656.9 559.2H660.3C661.1 559.2 661.8 559.9 661.8 560.7V587.8C661.8 588.7 661.1 589.3 660.3 589.3Z" fill="#172127"/>
<path d="M670.2 589.3H666.8C666 589.3 665.3 588.6 665.3 587.8V560.7C665.3 559.9 666 559.2 666.8 559.2H670.2C671 559.2 671.7 559.9 671.7 560.7V587.8C671.7 588.7 671 589.3 670.2 589.3Z" fill="#172127"/>
<path d="M456.6 533.8V537.2C456.6 538 455.9 538.7 455.1 538.7H428C427.2 538.7 426.5 538 426.5 537.2V533.8C426.5 533 427.2 532.3 428 532.3H455.1C456 532.3 456.6 532.9 456.6 533.8Z" fill="#172127"/>
<path d="M456.6 523.9V527.3C456.6 528.1 455.9 528.8 455.1 528.8H428C427.2 528.8 426.5 528.1 426.5 527.3V523.9C426.5 523.1 427.2 522.4 428 522.4H455.1C456 522.4 456.6 523 456.6 523.9Z" fill="#172127"/>
<path d="M456.6 514V517.4C456.6 518.2 455.9 518.9 455.1 518.9H428C427.2 518.9 426.5 518.2 426.5 517.4V514C426.5 513.2 427.2 512.5 428 512.5H455.1C456 512.5 456.6 513.1 456.6 514Z" fill="#172127"/>
<path d="M456.6 504.1V507.5C456.6 508.3 455.9 509 455.1 509H428C427.2 509 426.5 508.3 426.5 507.5V504.1C426.5 503.3 427.2 502.6 428 502.6H455.1C456 502.6 456.6 503.2 456.6 504.1Z" fill="#172127"/>
<path d="M456.6 494.2V497.6C456.6 498.4 455.9 499.1 455.1 499.1H428C427.2 499.1 426.5 498.4 426.5 497.6V494.2C426.5 493.4 427.2 492.7 428 492.7H455.1C456 492.7 456.6 493.3 456.6 494.2Z" fill="#172127"/>
<path d="M456.6 484.3V487.7C456.6 488.5 455.9 489.2 455.1 489.2H428C427.2 489.2 426.5 488.5 426.5 487.7V484.3C426.5 483.5 427.2 482.8 428 482.8H455.1C456 482.8 456.6 483.4 456.6 484.3Z" fill="#172127"/>
<path d="M456.6 474.4V477.8C456.6 478.6 455.9 479.3 455.1 479.3H428C427.2 479.3 426.5 478.6 426.5 477.8V474.4C426.5 473.6 427.2 472.9 428 472.9H455.1C456 472.9 456.6 473.5 456.6 474.4Z" fill="#172127"/>
<path d="M456.6 464.5V467.9C456.6 468.7 455.9 469.4 455.1 469.4H428C427.2 469.4 426.5 468.7 426.5 467.9V464.5C426.5 463.7 427.2 463 428 463H455.1C456 463 456.6 463.6 456.6 464.5Z" fill="#172127"/>
<path d="M456.6 454.6V458C456.6 458.8 455.9 459.5 455.1 459.5H428C427.2 459.5 426.5 458.8 426.5 458V454.6C426.5 453.8 427.2 453.1 428 453.1H455.1C456 453.1 456.6 453.7 456.6 454.6Z" fill="#172127"/>
<path d="M456.6 444.7V448.1C456.6 448.9 455.9 449.6 455.1 449.6H428C427.2 449.6 426.5 448.9 426.5 448.1V444.7C426.5 443.9 427.2 443.2 428 443.2H455.1C456 443.2 456.6 443.8 456.6 444.7Z" fill="#172127"/>
<path d="M456.6 434.8V438.2C456.6 439 455.9 439.7 455.1 439.7H428C427.2 439.7 426.5 439 426.5 438.2V434.8C426.5 434 427.2 433.3 428 433.3H455.1C456 433.3 456.6 433.9 456.6 434.8Z" fill="#172127"/>
<path d="M456.6 424.9V428.3C456.6 429.1 455.9 429.8 455.1 429.8H428C427.2 429.8 426.5 429.1 426.5 428.3V424.9C426.5 424.1 427.2 423.4 428 423.4H455.1C456 423.4 456.6 424 456.6 424.9Z" fill="#172127"/>
<path d="M456.6 415V418.4C456.6 419.2 455.9 419.9 455.1 419.9H428C427.2 419.9 426.5 419.2 426.5 418.4V415C426.5 414.2 427.2 413.5 428 413.5H455.1C456 413.5 456.6 414.1 456.6 415Z" fill="#172127"/>
<path d="M456.6 405.1V408.5C456.6 409.3 455.9 410 455.1 410H428C427.2 410 426.5 409.3 426.5 408.5V405.1C426.5 404.3 427.2 403.6 428 403.6H455.1C456 403.6 456.6 404.3 456.6 405.1Z" fill="#172127"/>
<path d="M456.6 395.2V398.6C456.6 399.4 455.9 400.1 455.1 400.1H428C427.2 400.1 426.5 399.4 426.5 398.6V395.2C426.5 394.4 427.2 393.7 428 393.7H455.1C456 393.7 456.6 394.4 456.6 395.2Z" fill="#172127"/>
<path d="M456.6 385.3V388.7C456.6 389.5 455.9 390.2 455.1 390.2H428C427.2 390.2 426.5 389.5 426.5 388.7V385.3C426.5 384.5 427.2 383.8 428 383.8H455.1C456 383.8 456.6 384.5 456.6 385.3Z" fill="#172127"/>
<path d="M456.6 375.4V378.8C456.6 379.6 455.9 380.3 455.1 380.3H428C427.2 380.3 426.5 379.6 426.5 378.8V375.4C426.5 374.6 427.2 373.9 428 373.9H455.1C456 373.9 456.6 374.6 456.6 375.4Z" fill="#172127"/>
<path d="M456.6 365.5V368.9C456.6 369.7 455.9 370.4 455.1 370.4H428C427.2 370.4 426.5 369.7 426.5 368.9V365.5C426.5 364.7 427.2 364 428 364H455.1C456 364 456.6 364.7 456.6 365.5Z" fill="#172127"/>
<path d="M456.6 355.6V359C456.6 359.8 455.9 360.5 455.1 360.5H428C427.2 360.5 426.5 359.8 426.5 359V355.6C426.5 354.8 427.2 354.1 428 354.1H455.1C456 354.1 456.6 354.8 456.6 355.6Z" fill="#172127"/>
<path d="M456.6 345.7V349.1C456.6 349.9 455.9 350.6 455.1 350.6H428C427.2 350.6 426.5 349.9 426.5 349.1V345.7C426.5 344.9 427.2 344.2 428 344.2H455.1C456 344.2 456.6 344.9 456.6 345.7Z" fill="#172127"/>
<path d="M722.3 533.8V537.2C722.3 538 721.6 538.7 720.8 538.7H693.7C692.9 538.7 692.2 538 692.2 537.2V533.8C692.2 533 692.9 532.3 693.7 532.3H720.8C721.7 532.3 722.3 532.9 722.3 533.8Z" fill="#172127"/>
<path d="M722.3 523.9V527.3C722.3 528.1 721.6 528.8 720.8 528.8H693.7C692.9 528.8 692.2 528.1 692.2 527.3V523.9C692.2 523.1 692.9 522.4 693.7 522.4H720.8C721.7 522.4 722.3 523 722.3 523.9Z" fill="#172127"/>
<path d="M722.3 514V517.4C722.3 518.2 721.6 518.9 720.8 518.9H693.7C692.9 518.9 692.2 518.2 692.2 517.4V514C692.2 513.2 692.9 512.5 693.7 512.5H720.8C721.7 512.5 722.3 513.1 722.3 514Z" fill="#172127"/>
<path d="M722.3 504.1V507.5C722.3 508.3 721.6 509 720.8 509H693.7C692.9 509 692.2 508.3 692.2 507.5V504.1C692.2 503.3 692.9 502.6 693.7 502.6H720.8C721.7 502.6 722.3 503.2 722.3 504.1Z" fill="#172127"/>
<path d="M722.3 494.2V497.6C722.3 498.4 721.6 499.1 720.8 499.1H693.7C692.9 499.1 692.2 498.4 692.2 497.6V494.2C692.2 493.4 692.9 492.7 693.7 492.7H720.8C721.7 492.7 722.3 493.3 722.3 494.2Z" fill="#172127"/>
<path d="M722.3 484.3V487.7C722.3 488.5 721.6 489.2 720.8 489.2H693.7C692.9 489.2 692.2 488.5 692.2 487.7V484.3C692.2 483.5 692.9 482.8 693.7 482.8H720.8C721.7 482.8 722.3 483.4 722.3 484.3Z" fill="#172127"/>
<path d="M722.3 474.4V477.8C722.3 478.6 721.6 479.3 720.8 479.3H693.7C692.9 479.3 692.2 478.6 692.2 477.8V474.4C692.2 473.6 692.9 472.9 693.7 472.9H720.8C721.7 472.9 722.3 473.5 722.3 474.4Z" fill="#172127"/>
<path d="M722.3 464.5V467.9C722.3 468.7 721.6 469.4 720.8 469.4H693.7C692.9 469.4 692.2 468.7 692.2 467.9V464.5C692.2 463.7 692.9 463 693.7 463H720.8C721.7 463 722.3 463.6 722.3 464.5Z" fill="#172127"/>
<path d="M722.3 454.6V458C722.3 458.8 721.6 459.5 720.8 459.5H693.7C692.9 459.5 692.2 458.8 692.2 458V454.6C692.2 453.8 692.9 453.1 693.7 453.1H720.8C721.7 453.1 722.3 453.7 722.3 454.6Z" fill="#172127"/>
<path d="M722.3 444.7V448.1C722.3 448.9 721.6 449.6 720.8 449.6H693.7C692.9 449.6 692.2 448.9 692.2 448.1V444.7C692.2 443.9 692.9 443.2 693.7 443.2H720.8C721.7 443.2 722.3 443.8 722.3 444.7Z" fill="#172127"/>
<path d="M722.3 434.8V438.2C722.3 439 721.6 439.7 720.8 439.7H693.7C692.9 439.7 692.2 439 692.2 438.2V434.8C692.2 434 692.9 433.3 693.7 433.3H720.8C721.7 433.3 722.3 433.9 722.3 434.8Z" fill="#172127"/>
<path d="M722.3 424.9V428.3C722.3 429.1 721.6 429.8 720.8 429.8H693.7C692.9 429.8 692.2 429.1 692.2 428.3V424.9C692.2 424.1 692.9 423.4 693.7 423.4H720.8C721.7 423.4 722.3 424 722.3 424.9Z" fill="#172127"/>
<path d="M722.3 415V418.4C722.3 419.2 721.6 419.9 720.8 419.9H693.7C692.9 419.9 692.2 419.2 692.2 418.4V415C692.2 414.2 692.9 413.5 693.7 413.5H720.8C721.7 413.5 722.3 414.1 722.3 415Z" fill="#172127"/>
<path d="M722.3 405.1V408.5C722.3 409.3 721.6 410 720.8 410H693.7C692.9 410 692.2 409.3 692.2 408.5V405.1C692.2 404.3 692.9 403.6 693.7 403.6H720.8C721.7 403.6 722.3 404.3 722.3 405.1Z" fill="#172127"/>
<path d="M722.3 395.2V398.6C722.3 399.4 721.6 400.1 720.8 400.1H693.7C692.9 400.1 692.2 399.4 692.2 398.6V395.2C692.2 394.4 692.9 393.7 693.7 393.7H720.8C721.7 393.7 722.3 394.4 722.3 395.2Z" fill="#172127"/>
<path d="M722.3 385.3V388.7C722.3 389.5 721.6 390.2 720.8 390.2H693.7C692.9 390.2 692.2 389.5 692.2 388.7V385.3C692.2 384.5 692.9 383.8 693.7 383.8H720.8C721.7 383.8 722.3 384.5 722.3 385.3Z" fill="#172127"/>
<path d="M722.3 375.4V378.8C722.3 379.6 721.6 380.3 720.8 380.3H693.7C692.9 380.3 692.2 379.6 692.2 378.8V375.4C692.2 374.6 692.9 373.9 693.7 373.9H720.8C721.7 373.9 722.3 374.6 722.3 375.4Z" fill="#172127"/>
<path d="M722.3 365.5V368.9C722.3 369.7 721.6 370.4 720.8 370.4H693.7C692.9 370.4 692.2 369.7 692.2 368.9V365.5C692.2 364.7 692.9 364 693.7 364H720.8C721.7 364 722.3 364.7 722.3 365.5Z" fill="#172127"/>
<path d="M722.3 355.6V359C722.3 359.8 721.6 360.5 720.8 360.5H693.7C692.9 360.5 692.2 359.8 692.2 359V355.6C692.2 354.8 692.9 354.1 693.7 354.1H720.8C721.7 354.1 722.3 354.8 722.3 355.6Z" fill="#172127"/>
<path d="M722.3 345.7V349.1C722.3 349.9 721.6 350.6 720.8 350.6H693.7C692.9 350.6 692.2 349.9 692.2 349.1V345.7C692.2 344.9 692.9 344.2 693.7 344.2H720.8C721.7 344.2 722.3 344.9 722.3 345.7Z" fill="#172127"/>
</g>
<g clip-path="url(#clip1_9_646)">
<path d="M572.9 38.1C575.1 34.6 574.7 30 571.6 26.9C568.1 23.4 562.4 23.4 558.8 26.9C555.3 30.4 555.3 36.1 558.8 39.7C561.8 42.7 566.5 43.1 570 41L577.4 48.4V293.8H581.4V47.5C581.4 47 581.2 46.5 580.8 46.1L572.9 38.1Z" fill="#0B1E28"/>
<path d="M589.3 0.5C584.3 0.5 580.3 4.5 580.3 9.5C580.3 13.8 583.3 17.4 587.3 18.3V293.7H591.3V18.3C595.3 17.4 598.3 13.8 598.3 9.5C598.4 4.5 594.3 0.5 589.3 0.5Z" fill="#0B1E28"/>
<path d="M739.8 22.3C740.7 26.3 744.3 29.3 748.6 29.3C753.6 29.3 757.6 25.3 757.6 20.3C757.6 15.3 753.6 11.3 748.6 11.3C744.3 11.3 740.7 14.3 739.8 18.3H721.7C721.2 18.3 720.7 18.5 720.3 18.9L597.8 141.4C597.4 141.8 597.2 142.3 597.2 142.8V293.7H601.2V143.6L722.5 22.3H739.8Z" fill="#0B1E28"/>
<path d="M783.2 40.5C778.9 40.5 775.3 43.5 774.4 47.5H706C705.5 47.5 705 47.7 704.6 48.1L607.8 144.9C607.4 145.3 607.2 145.8 607.2 146.3V293.7H611.2V147.2L706.9 51.5H774.5C775.4 55.5 779 58.5 783.3 58.5C788.3 58.5 792.3 54.5 792.3 49.5C792.2 44.5 788.1 40.5 783.2 40.5Z" fill="#0B1E28"/>
<path d="M751.6 72.9C752.5 76.9 756.1 79.9 760.4 79.9C765.4 79.9 769.4 75.9 769.4 70.9C769.4 65.9 765.4 61.9 760.4 61.9C756.1 61.9 752.5 64.9 751.6 68.9H698.6C698.1 68.9 697.6 69.1 697.2 69.5L617.6 149C617.2 149.4 617 149.9 617 150.4V293.7H621V151.2L699.3 72.9H751.6Z" fill="#0B1E28"/>
<path d="M737 99.4C737.9 103.4 741.5 106.4 745.8 106.4C750.8 106.4 754.8 102.4 754.8 97.4C754.8 92.4 750.8 88.4 745.8 88.4C741.5 88.4 737.9 91.4 737 95.4H686.4C685.9 95.4 685.4 95.6 685 96L627.5 153.5C627.1 153.9 626.9 154.4 626.9 154.9V293.8H630.9V155.8L687.2 99.5H737V99.4Z" fill="#0B1E28"/>
<path d="M764.3 115.1C760 115.1 756.4 118.1 755.5 122.1H672.4C671.9 122.1 671.4 122.3 671 122.7L637.5 156.2C637.1 156.6 636.9 157.1 636.9 157.6V293.7H640.9V158.5L673.2 126.2H755.5C756.4 130.2 760 133.2 764.3 133.2C769.3 133.2 773.3 129.2 773.3 124.2C773.3 119.1 769.2 115.1 764.3 115.1Z" fill="#0B1E28"/>
<path d="M746.6 139.8C742.3 139.8 738.7 142.8 737.8 146.8H662.1C661.6 146.8 661.1 147 660.7 147.4L647.2 160.9C646.8 161.3 646.6 161.8 646.6 162.3V293.7H650.6V163.1L662.9 150.8H737.7C738.6 154.8 742.2 157.8 746.5 157.8C751.5 157.8 755.5 153.8 755.5 148.8C755.7 143.8 751.6 139.8 746.6 139.8Z" fill="#0B1E28"/>
<path d="M399.4 199.4C401.6 195.9 401.2 191.3 398.1 188.2C394.6 184.7 388.9 184.7 385.3 188.2C381.7 191.7 381.8 197.4 385.3 201C388.3 204 393 204.4 396.5 202.3L478.4 284.2V293.8H482.4V283.4C482.4 282.9 482.2 282.4 481.8 282L399.4 199.4Z" fill="#0B1E28"/>
<path d="M491.8 265.5L391.6 165.3C391.2 164.9 390.7 164.7 390.2 164.7H377.3C376.4 160.7 372.8 157.7 368.5 157.7C363.5 157.7 359.5 161.7 359.5 166.7C359.5 171.7 363.5 175.7 368.5 175.7C372.8 175.7 376.4 172.7 377.3 168.7H389.3L488.3 267.7V293.7H492.3V266.9C492.4 266.4 492.2 265.9 491.8 265.5Z" fill="#0B1E28"/>
<path d="M501.7 245.4L399.4 143.2C401.6 139.7 401.2 135.1 398.1 132C394.6 128.5 388.9 128.5 385.3 132C381.7 135.5 381.8 141.2 385.3 144.8C388.3 147.8 393 148.2 396.5 146.1L498.2 247.8V293.8H502.2V247C502.3 246.3 502.1 245.8 501.7 245.4Z" fill="#0B1E28"/>
<path d="M511.6 227.5L392.9 108.9C392.5 108.5 392 108.3 391.5 108.3H377.3C376.4 104.3 372.8 101.3 368.5 101.3C363.5 101.3 359.5 105.3 359.5 110.3C359.5 115.3 363.5 119.3 368.5 119.3C372.8 119.3 376.4 116.3 377.3 112.3H390.7L508.2 229.8V293.7H512.2V229C512.2 228.4 511.9 227.9 511.6 227.5Z" fill="#0B1E28"/>
<path d="M521.5 210.7L399.6 88.8C401.8 85.3 401.4 80.7 398.3 77.6C394.8 74.1 389.1 74.1 385.5 77.6C381.9 81.1 382 86.8 385.5 90.4C388.5 93.4 393.2 93.8 396.7 91.7L518 213V293.8H522V212.2C522.1 211.6 521.8 211.1 521.5 210.7Z" fill="#0B1E28"/>
<path d="M531.4 193.2L394.1 56C393.7 55.6 393.2 55.4 392.7 55.4H379.3C378.4 51.4 374.8 48.4 370.5 48.4C365.5 48.4 361.5 52.4 361.5 57.4C361.5 62.4 365.5 66.4 370.5 66.4C374.8 66.4 378.4 63.4 379.3 59.4H391.9L528 195.4V293.7H532V194.6C532 194.1 531.7 193.6 531.4 193.2Z" fill="#0B1E28"/>
<path d="M528 146.2C529.9 144.7 531.2 142.4 531.2 139.8V110.3C531.2 108.2 530.4 106.1 528.9 104.6L441.4 17C439.9 15.5 437.9 14.7 435.7 14.7H8.5C4.1 14.7 0.5 18.3 0.5 22.7C0.5 27.1 4.1 30.7 8.5 30.7H432.4L515.2 113.5V139.7C515.2 144.1 518.8 147.7 523.2 147.7C523.5 147.7 523.7 147.7 524 147.7L547.8 171.5V293.7H551.8V170.7C551.8 170.2 551.6 169.7 551.2 169.3L528 146.2Z" fill="#0B1E28"/>
<path d="M569 143.9L567.5 142.4C568.1 141.7 568.4 140.9 568.4 139.9V118.7C568.4 117.5 567.9 116.5 567.1 115.8V85.5C567.1 83.9 566.5 82.4 565.3 81.3L565.1 81.1C565.2 78.6 564.4 76.1 562.5 74.2C559 70.7 553.3 70.7 549.7 74.2C546.2 77.7 546.2 83.4 549.7 87C551.2 88.5 553.1 89.3 555 89.6V116C554.2 116.7 553.7 117.7 553.7 118.9V140.1C553.7 142.3 555.4 144 557.6 144H563.2L565.5 146.3V262.6L558 272.2C557.7 272.6 557.6 273 557.6 273.4V293.8H561.6V274L569.1 264.4C569.4 264 569.5 263.6 569.5 263.2V145.3C569.6 144.8 569.4 144.3 569 143.9Z" fill="#0B1E28"/>
</g>
<path d="M169.9 234.5C174.2 234.5 177.8 231.5 178.7 227.5H247.4L369.2 349.3C369.6 349.7 370.1 349.9 370.6 349.9H426.7V345.9H371.4L249.6 224.1C249.2 223.7 248.7 223.5 248.2 223.5H178.7C177.8 219.5 174.2 216.5 169.9 216.5C164.9 216.5 160.9 220.5 160.9 225.5C160.9 230.5 164.9 234.5 169.9 234.5Z" fill="#0B1E28"/>
<path d="M426.7 355.8H367L298 286.8C297.6 286.4 297.1 286.2 296.6 286.2H234.6L204.6 256.2C206.8 252.7 206.4 248.1 203.3 245C199.8 241.5 194.1 241.5 190.5 245C186.9 248.5 187 254.2 190.5 257.8C193.5 260.8 198.2 261.2 201.7 259.1L232.3 289.7C232.7 290.1 233.2 290.3 233.7 290.3H295.6L364.6 359.3C365 359.7 365.5 359.9 366 359.9H426.6V355.8H426.7Z" fill="#0B1E28"/>
<path d="M426.7 365.7H363.6L294.8 296.9C294.4 296.5 293.9 296.3 293.4 296.3H216.8L199.8 279.3C199.4 278.9 198.9 278.7 198.4 278.7H180.5C179.6 274.7 176 271.7 171.7 271.7C166.7 271.7 162.7 275.7 162.7 280.7C162.7 285.7 166.7 289.7 171.7 289.7C176 289.7 179.6 286.7 180.5 282.7H197.5L214.5 299.7C214.9 300.1 215.4 300.3 215.9 300.3H292.6L361.4 369.1C361.8 369.5 362.3 369.7 362.8 369.7H426.7V365.7Z" fill="#0B1E28"/>
<path d="M290.4 305.1C290 304.7 289.5 304.5 289 304.5H207.6C206.7 300.5 203.1 297.5 198.8 297.5C193.8 297.5 189.8 301.5 189.8 306.5C189.8 311.5 193.8 315.5 198.8 315.5C203.1 315.5 206.7 312.5 207.6 308.5H288.2L358.7 379C359.1 379.4 359.6 379.6 360.1 379.6H426.7V375.6H361L290.4 305.1Z" fill="#0B1E28"/>
<path d="M426.7 395.4H354L302.6 344C302.2 343.6 301.7 343.4 301.2 343.4H270.6C267.1 340.2 261.6 340.3 258.2 343.7C254.7 347.2 254.7 352.9 258.2 356.5C261.7 360.1 267.4 360 271 356.5C273.5 354 274.2 350.5 273.2 347.4H300.4L351.9 398.9C352.3 399.3 352.8 399.5 353.3 399.5H426.8V395.4H426.7Z" fill="#0B1E28"/>
<path d="M426.7 405.3H352.2L320.1 373.2C319.7 372.8 319.2 372.6 318.7 372.6H300.4C299.5 368.6 295.9 365.6 291.6 365.6C286.6 365.6 282.6 369.6 282.6 374.6C282.6 379.6 286.6 383.6 291.6 383.6C295.9 383.6 299.5 380.6 300.4 376.6H317.8L349.9 408.7C350.3 409.1 350.8 409.3 351.3 409.3H426.6V405.3H426.7Z" fill="#0B1E28"/>
<path d="M426.7 415.2H349L324.7 390.9C324.3 390.5 323.8 390.3 323.3 390.3H245.4L224.7 373.1C224.3 372.8 223.9 372.6 223.4 372.6H204.8C203.9 368.6 200.3 365.6 196 365.6C191 365.6 187 369.6 187 374.6C187 379.6 191 383.6 196 383.6C200.3 383.6 203.9 380.6 204.8 376.6H222.7L243.4 393.8C243.8 394.1 244.2 394.3 244.7 394.3H322.5L346.8 418.6C347.2 419 347.7 419.2 348.2 419.2H426.7V415.2Z" fill="#0B1E28"/>
<path d="M426.7 435H421.4L412 425.6C411.6 425.2 411.1 425 410.6 425H344.7L320.5 400.8C320.1 400.4 319.6 400.2 319.1 400.2H231.8C230.9 396.2 227.3 393.2 223 393.2C218 393.2 214 397.2 214 402.2C214 407.2 218 411.2 223 411.2C227.3 411.2 230.9 408.2 231.8 404.2H318.2L342.4 428.4C342.8 428.8 343.3 429 343.8 429H409.7L419.1 438.4C419.5 438.8 420 439 420.5 439H426.6V435H426.7Z" fill="#0B1E28"/>
<path d="M426.7 444.9H353L325.8 417.7C325.4 417.3 324.9 417.1 324.4 417.1H275.9C275.4 417.1 274.9 417.3 274.5 417.7L265.8 426.4H263.7C261.5 426.4 259.8 428.1 259.8 430.3V440.3H249.9C249 436.3 245.4 433.3 241.1 433.3C236.1 433.3 232.1 437.3 232.1 442.3C232.1 447.3 236.1 451.3 241.1 451.3C245.4 451.3 249 448.3 249.9 444.3H259.8V451.5C259.8 453.7 261.5 455.4 263.7 455.4H270.5C272.7 455.4 274.4 453.7 274.4 451.5V430.3C274.4 428.4 273.1 426.9 271.4 426.5L276.8 421.1H323.6L350.8 448.3C351.2 448.7 351.7 448.9 352.2 448.9H426.8V444.9H426.7Z" fill="#0B1E28"/>
<path d="M426.7 454.8H325.7L316.2 445.3V430.4C316.2 428.2 314.5 426.5 312.3 426.5H305.5C303.3 426.5 301.6 428.2 301.6 430.4V451.6C301.6 453.8 303.3 455.5 305.5 455.5H312.3C314.5 455.5 316.2 453.8 316.2 451.6V451L323.5 458.3C323.9 458.7 324.4 458.9 324.9 458.9H426.8V454.8H426.7Z" fill="#0B1E28"/>
<path d="M426.7 464.7H238.7L227.3 456.2C227 455.9 226.5 455.8 226.1 455.8H201.5C202.7 452.3 201.7 448.2 198.6 445.7C194.7 442.6 189 443.2 185.9 447.1C182.8 451 183.4 456.7 187.3 459.8C190.7 462.5 195.5 462.4 198.7 459.7C198.9 459.7 199 459.8 199.2 459.8H225.3L236.7 468.3C237 468.6 237.5 468.7 237.9 468.7H426.6V464.7H426.7Z" fill="#0B1E28"/>
<path d="M426.7 474.6H231.8C230.9 470.6 227.3 467.6 223 467.6C218 467.6 214 471.6 214 476.6C214 481.6 218 485.6 223 485.6C227.3 485.6 230.9 482.6 231.8 478.6H426.7V474.6Z" fill="#0B1E28"/>
<path d="M426.7 484.5H377.9C377.4 484.5 376.9 484.7 376.5 485.1L357.1 504.5H201.8C200.9 500.5 197.3 497.5 193 497.5C188 497.5 184 501.5 184 506.5C184 511.5 188 515.5 193 515.5C197.3 515.5 200.9 512.5 201.8 508.5H358C358.5 508.5 359 508.3 359.4 507.9L378.8 488.5H426.8V484.5H426.7Z" fill="#0B1E28"/>
<path d="M426.7 494.5H379.8C379.3 494.5 378.8 494.7 378.4 495.1L344 529.5H227.4C226.5 525.5 222.9 522.5 218.6 522.5C213.6 522.5 209.6 526.5 209.6 531.5C209.6 536.5 213.6 540.5 218.6 540.5C222.9 540.5 226.5 537.5 227.4 533.5H344.8C345.3 533.5 345.8 533.3 346.2 532.9L380.6 498.5H426.6V494.5H426.7Z" fill="#0B1E28"/>
<path d="M426.7 504.5H382.8C382.3 504.5 381.8 504.7 381.4 505.1L322.6 563.9H201.7C203.8 560.4 203.3 555.9 200.4 552.9C196.9 549.4 191.2 549.4 187.6 552.9C184 556.4 184.1 562.1 187.6 565.7C190.6 568.7 195.3 569.1 198.8 567L199.2 567.4C199.6 567.8 200.1 568 200.6 568H323.5C324 568 324.5 567.8 324.9 567.4L383.7 508.6H426.8V504.5H426.7Z" fill="#0B1E28"/>
<path d="M426.7 514.7H388.4C387.9 514.7 387.4 514.9 387 515.3L310.4 591.9H226C227.4 588.6 226.8 584.6 224.1 581.9C220.6 578.4 214.9 578.4 211.3 581.9C207.7 585.4 207.8 591.1 211.3 594.7C214.4 597.8 219.2 598.2 222.7 595.8C222.9 595.9 223.1 595.9 223.2 595.9H311.2C311.7 595.9 312.2 595.7 312.6 595.3L389.2 518.7H426.7V514.7Z" fill="#0B1E28"/>
<path d="M305.9 612.6H202.7C201.8 608.6 198.2 605.6 193.9 605.6C188.9 605.6 184.9 609.6 184.9 614.6C184.9 619.6 188.9 623.6 193.9 623.6C198.2 623.6 201.8 620.6 202.7 616.6H306.7C307.2 616.6 307.7 616.4 308.1 616L396 528.1H426.7V524.1H395.2C394.7 524.1 394.2 524.3 393.8 524.7L305.9 612.6Z" fill="#0B1E28"/>
<path d="M399 534.2C398.5 534.2 398 534.4 397.6 534.8L325.3 607.1C324.9 607.5 324.7 608 324.7 608.5V625H323.3C321.1 625 319.4 626.7 319.4 628.9V710.5C314.8 713.1 311.7 718 311.7 723.6C311.7 731.9 318.4 738.6 326.7 738.6C335 738.6 341.7 731.9 341.7 723.6C341.7 717.9 338.6 713 334 710.5V628.9C334 626.7 332.3 625 330.1 625H328.7V609.3L399.9 538.1H427.5V534.1H399V534.2Z" fill="#0B1E28"/>
<path d="M153.5 598.8V348.7L164.4 337.8C165.4 336.8 166.1 335.5 166.5 334.1H300.9L355.7 388.9C356.1 389.3 356.6 389.5 357.1 389.5H426.8V385.5H357.9L303.1 330.7C302.7 330.3 302.2 330.1 301.7 330.1H166.5C166.2 328.8 165.5 327.5 164.4 326.4C161.3 323.3 156.2 323.3 153.1 326.4L139.8 339.7C138.3 341.2 137.5 343.2 137.5 345.4V602.1C137.5 604.2 138.3 606.3 139.8 607.8L208.1 676.1V938.9L181.8 958.4H159.1C156.9 958.4 155.2 960.1 155.2 962.3V975.9C155.2 978.1 156.9 979.8 159.1 979.8H184.4C186.6 979.8 188.3 978.1 188.3 975.9V973.6L221 949.5C223 948 224.2 945.6 224.2 943.1V672.8C224.2 670.7 223.4 668.6 221.9 667.1L153.5 598.8Z" fill="#0B1E28"/>
<path d="M375.4 726.9V650.8L459.8 566.4L451.3 557.9L365.2 644C364.1 645.1 363.4 646.7 363.4 648.2V726.7C361.5 728.4 360.4 730.7 360.4 733.4C360.4 733.7 360.4 733.9 360.4 734.2L241.6 853.3C240.5 854.4 239.8 856 239.8 857.5V989.9C237.9 991.6 236.8 993.9 236.8 996.6C236.8 1001.6 240.8 1005.6 245.8 1005.6C250.8 1005.6 254.8 1001.6 254.8 996.6C254.8 993.9 253.6 991.5 251.8 989.9V860L369.1 742.7C369.2 742.7 369.2 742.7 369.3 742.7C374.3 742.7 378.3 738.7 378.3 733.7C378.4 731 377.2 728.6 375.4 726.9Z" fill="#0B1E28"/>
<g clip-path="url(#clip2_9_646)">
<path d="M403 942.5V689.8L481.8 611C482.2 610.6 482.4 610.1 482.4 609.6V589H478.4V608.8L399.6 687.6C399.2 687.9 399 688.4 399 689V942.6C395 943.5 392 947.1 392 951.4C392 956.4 396 960.4 401 960.4C406 960.4 410 956.4 410 951.4C410 947 407 943.4 403 942.5Z" fill="#0B1E28"/>
<path d="M434.7 894.9V672.1L491.7 615.1C492.1 614.7 492.3 614.2 492.3 613.7V589H488.3V612.9L431.3 669.9C430.9 670.3 430.7 670.8 430.7 671.3V894.9C426.7 895.8 423.7 899.4 423.7 903.7C423.7 908.7 427.7 912.7 432.7 912.7C437.7 912.7 441.7 908.7 441.7 903.7C441.8 899.4 438.7 895.8 434.7 894.9Z" fill="#0B1E28"/>
<path d="M458.6 870.9V666.9L501.6 623.9C502 623.5 502.2 623 502.2 622.5V589H498.2V621.7L455.2 664.7C454.8 665.1 454.6 665.6 454.6 666.1V871C450.6 871.9 447.6 875.5 447.6 879.8C447.6 884.8 451.6 888.8 456.6 888.8C461.6 888.8 465.6 884.8 465.6 879.8C465.6 875.4 462.6 871.8 458.6 870.9Z" fill="#0B1E28"/>
<path d="M480.1 731V686.9L487.7 678.8C488.2 679.1 488.8 679.2 489.5 679.2H496.3C498.5 679.2 500.2 677.5 500.2 675.3V659.7L521.4 638.5C521.8 638.1 522 637.6 522 637.1V589H518V636.3L500.2 654.1C500.1 652 498.4 650.3 496.3 650.3H489.5C487.3 650.3 485.6 652 485.6 654.2V663.6L469.7 680.4C468.6 681.5 468.1 683 468.1 684.5V731C466.2 732.7 465.1 735 465.1 737.7C465.1 742.7 469.1 746.7 474.1 746.7C479.1 746.7 483.1 742.7 483.1 737.7C483.1 735.1 481.9 732.7 480.1 731Z" fill="#0B1E28"/>
<path d="M503.7 705.3H508.6C510.2 705.3 511.7 704.7 512.8 703.5L537.2 679.2C539 678.9 540.4 677.3 540.4 675.4V654.2C540.4 652 538.7 650.3 536.5 650.3H531.9V589H527.9V650.8C526.7 651.5 525.8 652.7 525.8 654.2V673.6L506.1 693.3H503.7C502 691.4 499.7 690.3 497 690.3C492 690.3 488 694.3 488 699.3C488 704.3 492 708.3 497 708.3C499.6 708.3 502 707.2 503.7 705.3Z" fill="#0B1E28"/>
<path d="M504.4 852.2V728.4L551.1 681.7C551.5 681.3 551.7 680.8 551.7 680.3V589H547.7V679.5L501 726.2C500.6 726.6 500.4 727.1 500.4 727.6V852.2C496.4 853.1 493.4 856.7 493.4 861C493.4 866 497.4 870 502.4 870C507.4 870 511.4 866 511.4 861C511.4 856.7 508.4 853.1 504.4 852.2Z" fill="#0B1E28"/>
<path d="M529.4 831.2V714.8L561 683.2C561.4 682.8 561.6 682.3 561.6 681.8V589H557.6V681L526 712.5C525.6 712.9 525.4 713.4 525.4 713.9V831.1C521.4 832 518.4 835.6 518.4 839.9C518.4 844.9 522.4 848.9 527.4 848.9C532.4 848.9 536.4 844.9 536.4 839.9C536.5 835.7 533.4 832.1 529.4 831.2Z" fill="#0B1E28"/>
<path d="M567.5 684.8L547 705.2C546.6 705.6 546.4 706.1 546.4 706.6V808.9C542.4 809.8 539.4 813.4 539.4 817.7C539.4 822.7 543.4 826.7 548.4 826.7C553.4 826.7 557.4 822.7 557.4 817.7C557.4 813.4 554.4 809.8 550.4 808.9V707.5L570.9 687C571.3 686.6 571.5 686.1 571.5 685.6V589H567.5V684.8Z" fill="#0B1E28"/>
<path d="M640.7 623.7V589H636.7V624.5C636.7 625 636.9 625.5 637.3 625.9L649.9 638.5V692.9H653.9V637.7C653.9 637.2 653.7 636.7 653.3 636.3L640.7 623.7Z" fill="#0B1E28"/>
<path d="M672.2 721.8V642C672.2 641.5 672 641 671.6 640.6L650.6 619.6V589H646.6V620.4C646.6 620.9 646.8 621.4 647.2 621.8L668.2 642.8V721.8C664.2 722.7 661.2 726.3 661.2 730.6C661.2 735.6 665.2 739.6 670.2 739.6C675.2 739.6 679.2 735.6 679.2 730.6C679.2 726.3 676.2 722.8 672.2 721.8Z" fill="#0B1E28"/>
<path d="M689.1 755.7V647C689.1 646.5 688.9 646 688.5 645.6L660.5 617.6V589H656.5V618.4C656.5 618.9 656.7 619.4 657.1 619.8L685.1 647.8V755.8C681.1 756.7 678.1 760.3 678.1 764.6C678.1 769.6 682.1 773.6 687.1 773.6C692.1 773.6 696.1 769.6 696.1 764.6C696.1 760.2 693.1 756.7 689.1 755.7Z" fill="#0B1E28"/>
<path d="M717 782.9V661.5C717 661 716.8 660.5 716.4 660.1L670.4 614.1V589H666.4V614.9C666.4 615.4 666.6 615.9 667 616.3L713 662.3V782.9C709 783.8 706 787.4 706 791.7C706 796.7 710 800.7 715 800.7C720 800.7 724 796.7 724 791.7C724.1 787.4 721.1 783.8 717 782.9Z" fill="#0B1E28"/>
<path d="M596.6 654.1V632.9C596.6 630.7 594.9 629 592.7 629H592L581.4 618.4V589H577.4V619.3C577.4 619.8 577.6 620.3 578 620.7L586.4 629.1H586C583.8 629.1 582.1 630.8 582.1 633V654.2C582.1 656.4 583.8 658.1 586 658.1H592.8C594.8 658 596.6 656.2 596.6 654.1Z" fill="#0B1E28"/>
<path d="M629 629H622.2C621.9 629 621.6 629.1 621.3 629.1L591.2 599V589H587.2V599.9C587.2 600.4 587.4 600.9 587.8 601.3L618.5 632C618.4 632.3 618.4 632.6 618.4 633V654.2C618.4 655.4 618.9 656.4 619.7 657.1V707.2L602.2 724.7C599.7 724.6 597.2 725.4 595.3 727.3C591.8 730.8 591.8 736.5 595.3 740.1C598.8 743.6 604.5 743.6 608.1 740.1C610 738.2 610.9 735.7 610.7 733.2L629.9 714C631 712.9 631.7 711.3 631.7 709.8V657C632.5 656.3 633 655.3 633 654.1V632.9C632.9 630.8 631.2 629 629 629Z" fill="#0B1E28"/>
</g>
<g clip-path="url(#clip3_9_646)">
<path d="M721.9 349.6H723.1C723.6 349.6 724.1 349.4 724.5 349L744.4 329.1C744.8 328.7 745 328.2 745 327.7V244.1L807 182H822C822.9 185.2 825.8 187.5 829.2 187.5C833.4 187.5 836.7 184.1 836.7 180C836.7 175.9 833.3 172.5 829.2 172.5C825.7 172.5 822.8 174.8 822 178H806.1C805.6 178 805.1 178.2 804.7 178.6L741.5 241.8C741.1 242.2 740.9 242.7 740.9 243.2V326.8L722.1 345.6H721.8V345.9L721.5 346.2L721.8 346.5V349.6H721.9Z" fill="#0B1E28"/>
<path d="M721.9 359.5H723.1C723.6 359.5 724.1 359.3 724.5 358.9L752.3 331.1C752.7 330.7 752.9 330.2 752.9 329.7V262.8L804 211.6C806.9 213.2 810.6 212.8 813 210.4C815.9 207.5 815.9 202.7 813 199.8C810.1 196.9 805.3 196.9 802.4 199.8C800 202.2 799.6 206 801.2 208.8L749.5 260.5C749.1 260.9 748.9 261.4 748.9 261.9V328.8L722.3 355.4H722V355.7L721.7 356L722 356.3V359.5H721.9Z" fill="#0B1E28"/>
<path d="M721.9 369.4H723.1C723.6 369.4 724.1 369.2 724.5 368.8L759.4 333.9C759.8 333.5 760 333 760 332.5V274.9L802.8 232.1H825.9C826.8 235.3 829.7 237.6 833.1 237.6C837.3 237.6 840.6 234.2 840.6 230.1C840.6 226 837.2 222.6 833.1 222.6C829.6 222.6 826.7 224.9 825.9 228.1H802C801.5 228.1 801 228.3 800.6 228.7L756.6 272.7C756.2 273.1 756 273.6 756 274.1V331.7L722.3 365.4H722V365.7L721.7 366L722 366.3V369.4H721.9Z" fill="#0B1E28"/>
<path d="M767.1 298.2V338.2L730.1 375.2H721.9V379.2H731C731.5 379.2 732 379 732.4 378.6L770.6 340.4C771 340 771.2 339.5 771.2 339V299L804.2 266C807.1 267.6 810.8 267.2 813.2 264.8C816.1 261.9 816.1 257.1 813.2 254.2C810.3 251.3 805.5 251.3 802.6 254.2C800.2 256.6 799.8 260.4 801.4 263.2L767.8 296.8C767.3 297.2 767.1 297.7 767.1 298.2Z" fill="#0B1E28"/>
<path d="M840.6 286.6C840.6 282.4 837.2 279.1 833.1 279.1C829.6 279.1 826.7 281.4 825.9 284.6H807C806.5 284.6 806 284.8 805.6 285.2L775.5 315.3C775.1 315.7 774.9 316.2 774.9 316.7V341.8L731.5 385.2H721.9V389.2H732.4C732.9 389.2 733.4 389 733.8 388.6L778.4 344C778.8 343.6 779 343.1 779 342.6V317.5L807.9 288.6H825.9C826.8 291.8 829.7 294.1 833.1 294.1C837.2 294.2 840.6 290.8 840.6 286.6Z" fill="#0B1E28"/>
<path d="M735.7 395.1H721.9V399.1H736.5C737 399.1 737.5 398.9 737.9 398.5L809.7 326.7C810.1 326.3 810.3 325.8 810.3 325.3V322C813.5 321.1 815.8 318.2 815.8 314.8C815.8 310.6 812.4 307.3 808.3 307.3C804.2 307.3 800.8 310.7 800.8 314.8C800.8 318.3 803.1 321.2 806.3 322V324.5L735.7 395.1Z" fill="#0B1E28"/>
<path d="M830.7 349.8C834.9 349.8 838.2 346.4 838.2 342.3C838.2 338.2 834.8 334.8 830.7 334.8C827.2 334.8 824.3 337.1 823.5 340.3H802.8C802.3 340.3 801.8 340.5 801.4 340.9L737.3 405H721.9V409H738.1C738.6 409 739.1 408.8 739.5 408.4L803.6 344.3H823.4C824.3 347.5 827.2 349.8 830.7 349.8Z" fill="#0B1E28"/>
<path d="M801.3 360.7C798.9 363.1 798.5 366.9 800.1 369.7L755 414.9H721.9V418.9H755.8C756.3 418.9 756.8 418.7 757.2 418.3L802.9 372.6C805.8 374.2 809.5 373.8 811.9 371.4C814.8 368.5 814.8 363.7 811.9 360.8C809 357.9 804.3 357.8 801.3 360.7Z" fill="#0B1E28"/>
<path d="M771.4 443.5C774.3 446.4 779.1 446.4 782 443.5C784.9 440.6 784.9 435.8 782 432.9C779.6 430.5 775.8 430.1 773 431.7L766.7 425.4C766.3 425 765.8 424.8 765.3 424.8H721.8V428.8H764.4L770.1 434.5C768.6 437.3 769 441 771.4 443.5Z" fill="#0B1E28"/>
<path d="M721.9 478.3H876.7C877.6 481.5 880.5 483.8 883.9 483.8C888.1 483.8 891.4 480.4 891.4 476.3C891.4 472.1 888 468.8 883.9 468.8C880.4 468.8 877.5 471.1 876.7 474.3H721.9V478.3Z" fill="#0B1E28"/>
<path d="M904.9 517.7C902.5 515.3 898.7 514.9 895.9 516.5L864.1 484.7C863.7 484.3 863.2 484.1 862.7 484.1H721.9V488.1H861.9L893 519.2C892.1 520.5 891.6 522 891.6 523.7V1039.1L874 1062.1C871.3 1065.6 872 1070.6 875.5 1073.3C876.9 1074.4 878.7 1074.9 880.3 1074.9C882.7 1074.9 885.1 1073.8 886.7 1071.7L905.9 1046.5C907 1045.1 907.5 1043.4 907.5 1041.7V523.8C907.5 521.9 906.8 520.1 905.6 518.7C905.4 518.3 905.2 518 904.9 517.7Z" fill="#0B1E28"/>
<path d="M273.1 1044.1C275.2 1044.1 277.3 1043.3 278.8 1041.8L311.2 1009.4H597.2C599.3 1009.4 601.4 1008.6 602.9 1007.1L625.1 984.9H718.3C720.4 984.9 722.5 984.1 724 982.6L794.4 912.2C795.9 910.7 796.7 908.7 796.7 906.5V560.9C796.7 559.1 796.1 557.5 795.1 556.1C795 556 794.9 555.9 794.8 555.8C794.6 555.6 794.5 555.4 794.3 555.3C794.1 555.1 794 555 793.8 554.8C793.7 554.7 793.7 554.7 793.6 554.6C793.4 554.4 793.1 554.2 792.9 554.1C792.7 554 792.5 553.9 792.3 553.7C792.2 553.7 792.2 553.6 792.1 553.6C791.8 553.4 791.4 553.3 791 553.2V550.5C791 550 790.8 549.5 790.4 549.1L775.5 534.2C775.1 533.8 774.6 533.6 774.1 533.6H721.9V537.6H773.3L787.1 551.3V553C783.5 553.8 780.8 557 780.8 560.8V902.9L715.1 968.7H621.9C619.8 968.7 617.7 969.5 616.2 971L594 993.2H308C305.9 993.2 303.8 994 302.3 995.5L269.9 1027.9H224.1C222 1027.9 219.9 1028.7 218.4 1030.2L200.3 1048.6C199 1049.9 198.3 1051.5 198 1053.2H195.4C193.2 1053.2 191.5 1054.9 191.5 1057.1V1070.7C191.5 1072.9 193.2 1074.6 195.4 1074.6H220.7C222.9 1074.6 224.6 1072.9 224.6 1070.7V1057C224.6 1054.8 222.9 1053.1 220.7 1053.1H218.4L227.5 1044H273.1V1044.1Z" fill="#0B1E28"/>
<path d="M608.7 1027.7C610.8 1027.7 612.9 1026.9 614.4 1025.4L632.1 1007.7H729C731.1 1007.7 733.2 1006.9 734.7 1005.4L814.5 925.6C816 924.1 816.8 922.1 816.8 919.9V537.3C816.8 532.9 813.2 529.3 808.8 529.3C807.3 529.3 805.9 529.7 804.7 530.5L798.6 524.4C798.2 524 797.7 523.8 797.2 523.8H722V527.8H796.4L802 533.4C801.3 534.6 800.9 535.9 800.9 537.4V916.7L725.8 991.8H628.9C626.8 991.8 624.7 992.6 623.2 994.1L605.5 1011.8H322.5C320.4 1011.8 318.3 1012.6 316.8 1014.1L277.7 1053.2H268C265.8 1053.2 264.1 1054.9 264.1 1057.1V1070.7C264.1 1072.9 265.8 1074.6 268 1074.6H293.3C295.5 1074.6 297.2 1072.9 297.2 1070.7V1057C297.2 1056.8 297.2 1056.6 297.1 1056.4L325.8 1027.7H608.7Z" fill="#0B1E28"/>
<path d="M623 1048L641.7 1029.3H811.3C813.4 1029.3 815.5 1028.5 817 1027L835.2 1008.8C836.7 1007.3 837.5 1005.3 837.5 1003.1V529C837.5 524.6 833.9 521 829.5 521C828 521 826.5 521.4 825.3 522.2L817.6 514.5C817.2 514.1 816.7 513.9 816.2 513.9H721.9V517.9H815.4L822.6 525.1C822 526.3 821.6 527.6 821.6 529V999.8L808 1013.2H638.4C636.3 1013.2 634.2 1014 632.7 1015.5L614 1034.3H552.8C550.7 1034.3 548.6 1035.1 547.1 1036.6L520.5 1063.2H507.1C506.7 1061.4 505.2 1060.1 503.3 1060.1H478C475.8 1060.1 474.1 1061.8 474.1 1064V1077.6C474.1 1079.8 475.8 1081.5 478 1081.5H503.3C504.9 1081.5 506.2 1080.6 506.8 1079.2H523.8C525.9 1079.2 528 1078.4 529.5 1076.9L556.1 1050.3H617.3C619.4 1050.3 621.5 1049.5 623 1048Z" fill="#0B1E28"/>
<path d="M864.7 1006.6V532.5C864.7 530.5 864 528.8 862.8 527.4C861.8 526 860.4 525 858.7 524.6V522C858.7 521.5 858.5 521 858.1 520.6L842.2 504.7C841.8 504.3 841.3 504.1 840.8 504.1H721.8V508.1H840L854.8 522.9V524.6C853.5 525 852.4 525.7 851.4 526.6C849.8 528.1 848.7 530.2 848.7 532.6V1003.5L818.8 1033.4H649.2C647.1 1033.4 645 1034.2 643.5 1035.7L616.2 1063H592C591.5 1061.4 590 1060.3 588.3 1060.3H563C560.8 1060.3 559.1 1062 559.1 1064.2V1077.8C559.1 1080 560.8 1081.7 563 1081.7H588.3C590 1081.7 591.5 1080.6 592 1079H619.6C621.7 1079 623.8 1078.2 625.3 1076.7L652.6 1049.4H822.2C824.3 1049.4 826.4 1048.6 827.9 1047.1L862.5 1012.5C863.9 1010.8 864.7 1008.8 864.7 1006.6Z" fill="#0B1E28"/>
<path d="M888.3 1017.4V534.6C888.3 530.9 885.8 527.8 882.4 526.9V521.2C882.4 520.7 882.2 520.2 881.8 519.8L856.7 494.7C856.3 494.3 855.8 494.1 855.3 494.1H721.9V498.1H854.5L878.4 522V526.9C874.9 527.8 872.3 530.9 872.3 534.7V1014.2L844.9 1041.6C843.4 1043.1 842.6 1045.1 842.6 1047.3V1095.5C842.6 1099.9 846.2 1103.5 850.6 1103.5C855 1103.5 858.6 1099.9 858.6 1095.5V1050.6L886 1023.2C887.5 1021.6 888.3 1019.6 888.3 1017.4Z" fill="#0B1E28"/>
<path d="M994.7 488.8L951.9 446C950.4 444.5 948.4 443.7 946.2 443.7H827.1C822.7 443.7 819.1 447.3 819.1 451.7C819.1 453.9 820 456 821.5 457.4L814.5 464.4H721.9V468.4H815.4C815.9 468.4 816.4 468.2 816.8 467.8L825.2 459.4C825.8 459.6 826.5 459.7 827.2 459.7H943L981.1 497.8V652.3L934.5 698.9C933 700.4 932.2 702.4 932.2 704.6V1003.9C932.2 1008.3 935.8 1011.9 940.2 1011.9C944.6 1011.9 948.2 1008.3 948.2 1003.9V707.9L994.8 661.3C996.3 659.8 997.1 657.8 997.1 655.6V494.4C997.1 492.3 996.2 490.3 994.7 488.8Z" fill="#0B1E28"/>
</g>
<g clip-path="url(#clip4_9_646)">
<path opacity="0.07" d="M1116.7 815.8C1123.38 815.8 1128.8 810.383 1128.8 803.7C1128.8 797.017 1123.38 791.6 1116.7 791.6C1110.02 791.6 1104.6 797.017 1104.6 803.7C1104.6 810.383 1110.02 815.8 1116.7 815.8Z" stroke="white" stroke-miterlimit="10"/>
<path opacity="0.07" d="M1135.8 784.5H1097.5V822.8H1135.8V784.5Z" stroke="white" stroke-miterlimit="10"/>
<path opacity="0.07" d="M1183.5 815.8C1190.18 815.8 1195.6 810.383 1195.6 803.7C1195.6 797.017 1190.18 791.6 1183.5 791.6C1176.82 791.6 1171.4 797.017 1171.4 803.7C1171.4 810.383 1176.82 815.8 1183.5 815.8Z" stroke="white" stroke-miterlimit="10"/>
<path opacity="0.07" d="M1202.6 784.5H1164.3V822.8H1202.6V784.5Z" stroke="white" stroke-miterlimit="10"/>
<path opacity="0.07" d="M1116.7 881.8C1123.38 881.8 1128.8 876.383 1128.8 869.7C1128.8 863.017 1123.38 857.6 1116.7 857.6C1110.02 857.6 1104.6 863.017 1104.6 869.7C1104.6 876.383 1110.02 881.8 1116.7 881.8Z" stroke="white" stroke-miterlimit="10"/>
<path opacity="0.07" d="M1135.8 850.6H1097.5V888.9H1135.8V850.6Z" stroke="white" stroke-miterlimit="10"/>
<path opacity="0.07" d="M1183.5 881.8C1190.18 881.8 1195.6 876.383 1195.6 869.7C1195.6 863.017 1190.18 857.6 1183.5 857.6C1176.82 857.6 1171.4 863.017 1171.4 869.7C1171.4 876.383 1176.82 881.8 1183.5 881.8Z" stroke="white" stroke-miterlimit="10"/>
<path opacity="0.07" d="M1202.6 850.6H1164.3V888.9H1202.6V850.6Z" stroke="white" stroke-miterlimit="10"/>
<path opacity="0.07" d="M1365.5 815.8C1372.18 815.8 1377.6 810.383 1377.6 803.7C1377.6 797.017 1372.18 791.6 1365.5 791.6C1358.82 791.6 1353.4 797.017 1353.4 803.7C1353.4 810.383 1358.82 815.8 1365.5 815.8Z" stroke="white" stroke-miterlimit="10"/>
<path opacity="0.07" d="M1384.6 784.5H1346.3V822.8H1384.6V784.5Z" stroke="white" stroke-miterlimit="10"/>
<path opacity="0.07" d="M1365.5 881.8C1372.18 881.8 1377.6 876.383 1377.6 869.7C1377.6 863.017 1372.18 857.6 1365.5 857.6C1358.82 857.6 1353.4 863.017 1353.4 869.7C1353.4 876.383 1358.82 881.8 1365.5 881.8Z" stroke="white" stroke-miterlimit="10"/>
<path opacity="0.07" d="M1384.6 850.6H1346.3V888.9H1384.6V850.6Z" stroke="white" stroke-miterlimit="10"/>
<path opacity="0.07" d="M1547.4 881.8C1554.08 881.8 1559.5 876.383 1559.5 869.7C1559.5 863.017 1554.08 857.6 1547.4 857.6C1540.72 857.6 1535.3 863.017 1535.3 869.7C1535.3 876.383 1540.72 881.8 1547.4 881.8Z" stroke="white" stroke-miterlimit="10"/>
<path opacity="0.07" d="M1566.6 850.6H1528.3V888.9H1566.6V850.6Z" stroke="white" stroke-miterlimit="10"/>
<path opacity="0.07" d="M1729.4 815.8C1736.08 815.8 1741.5 810.383 1741.5 803.7C1741.5 797.017 1736.08 791.6 1729.4 791.6C1722.72 791.6 1717.3 797.017 1717.3 803.7C1717.3 810.383 1722.72 815.8 1729.4 815.8Z" stroke="white" stroke-miterlimit="10"/>
<path opacity="0.07" d="M1748.6 784.5H1710.3V822.8H1748.6V784.5Z" stroke="white" stroke-miterlimit="10"/>
</g>
<g clip-path="url(#clip5_9_646)">
<path d="M1204 83.2V47.8H1209.4V52.8C1210.5 51.1 1212 49.7 1213.8 48.6C1215.6 47.5 1217.7 47 1220.1 47C1222.7 47 1224.9 47.5 1226.6 48.6C1228.3 49.7 1229.5 51.2 1230.2 53.2C1232.9 49.1 1236.5 47 1241 47C1244.5 47 1247.2 48 1249.1 49.9C1251 51.8 1251.9 54.8 1251.9 58.9V83.2H1245.9V60.9C1245.9 58.5 1245.7 56.8 1245.3 55.7C1244.9 54.6 1244.2 53.8 1243.2 53.1C1242.2 52.5 1241 52.1 1239.6 52.1C1237.1 52.1 1235 52.9 1233.4 54.6C1231.8 56.3 1230.9 58.9 1230.9 62.6V83.2H1224.9V60.2C1224.9 57.5 1224.4 55.5 1223.4 54.2C1222.4 52.9 1220.8 52.2 1218.6 52.2C1216.9 52.2 1215.3 52.6 1213.9 53.5C1212.5 54.4 1211.4 55.7 1210.8 57.4C1210.2 59.1 1209.8 61.6 1209.8 64.8V83.2H1204Z" fill="#0B1E28"/>
<path d="M1260.6 96.9L1259.9 91.3C1261.2 91.7 1262.4 91.8 1263.3 91.8C1264.6 91.8 1265.7 91.6 1266.5 91.1C1267.3 90.7 1268 90 1268.5 89.2C1268.9 88.6 1269.5 87.1 1270.3 84.7C1270.4 84.4 1270.6 83.9 1270.8 83.2L1257.5 47.8H1264L1271.4 68.3C1272.4 70.9 1273.2 73.6 1274 76.5C1274.7 73.7 1275.5 71.1 1276.5 68.4L1284.1 47.8H1290.1L1276.6 83.8C1275.2 87.7 1274 90.4 1273.2 91.8C1272.1 93.8 1270.9 95.2 1269.5 96.2C1268.1 97.1 1266.5 97.6 1264.6 97.6C1263.3 97.6 1262 97.4 1260.6 96.9Z" fill="#0B1E28"/>
<path d="M1295 96.8V47.8H1300.5V52.4C1301.8 50.6 1303.2 49.2 1304.9 48.3C1306.6 47.4 1308.5 46.9 1310.8 46.9C1313.8 46.9 1316.5 47.7 1318.8 49.2C1321.1 50.8 1322.9 53 1324 55.8C1325.2 58.6 1325.8 61.7 1325.8 65.1C1325.8 68.7 1325.1 72 1323.8 74.9C1322.5 77.8 1320.6 80 1318.1 81.6C1315.6 83.1 1313 83.9 1310.3 83.9C1308.3 83.9 1306.5 83.5 1304.9 82.6C1303.3 81.7 1302 80.7 1301 79.4V96.6H1295V96.8ZM1300.5 65.7C1300.5 70.3 1301.4 73.6 1303.3 75.8C1305.2 78 1307.4 79.1 1310 79.1C1312.7 79.1 1315 78 1316.9 75.7C1318.8 73.4 1319.8 69.9 1319.8 65.2C1319.8 60.7 1318.9 57.3 1317 55.1C1315.1 52.9 1312.9 51.7 1310.3 51.7C1307.7 51.7 1305.5 52.9 1303.5 55.3C1301.4 57.7 1300.5 61.2 1300.5 65.7Z" fill="#0B1E28"/>
<path d="M1357.3 71.8L1363.5 72.6C1362.5 76.2 1360.7 79 1358.1 81C1355.5 83 1352.1 84 1348 84C1342.8 84 1338.7 82.4 1335.7 79.2C1332.7 76 1331.1 71.5 1331.1 65.8C1331.1 59.8 1332.6 55.2 1335.7 51.9C1338.8 48.6 1342.7 47 1347.6 47C1352.3 47 1356.2 48.6 1359.2 51.8C1362.2 55 1363.7 59.6 1363.7 65.4C1363.7 65.8 1363.7 66.3 1363.7 67H1337.3C1337.5 70.9 1338.6 73.9 1340.6 75.9C1342.6 78 1345 79 1348 79C1350.2 79 1352.1 78.4 1353.6 77.3C1355.1 76.2 1356.4 74.3 1357.3 71.8ZM1337.5 62.1H1357.3C1357 59.1 1356.3 56.9 1355 55.4C1353.1 53.1 1350.6 51.9 1347.6 51.9C1344.8 51.9 1342.5 52.8 1340.6 54.7C1338.7 56.6 1337.8 59 1337.5 62.1Z" fill="#0B1E28"/>
<path d="M1111.1 160.7L1102.5 132.5H1107.4L1111.9 148.8L1113.6 154.9C1113.7 154.6 1114.2 152.7 1115.1 149.1L1119.6 132.6H1124.5L1128.7 149L1130.1 154.4L1131.7 149L1136.5 132.7H1141.2L1132.4 160.9H1127.4L1122.9 144L1121.8 139L1116.1 160.7H1111.1Z" fill="#0B1E28"/>
<path d="M1150.4 160.7L1141.8 132.5H1146.7L1151.2 148.8L1152.9 154.9C1153 154.6 1153.5 152.7 1154.4 149.1L1158.9 132.6H1163.8L1168 149L1169.4 154.4L1171 149L1175.8 132.7H1180.5L1171.7 160.9H1166.7L1162.2 144L1161.1 139.2L1155.4 160.9H1150.4V160.7Z" fill="#0B1E28"/>
<path d="M1189.8 160.7L1181.2 132.5H1186.1L1190.6 148.8L1192.3 154.9C1192.4 154.6 1192.9 152.7 1193.8 149.1L1198.3 132.6H1203.2L1207.4 149L1208.8 154.4L1210.4 149L1215.2 132.7H1219.9L1211.1 160.9H1206.1L1201.6 144L1200.5 139.2L1194.8 160.9H1189.8V160.7Z" fill="#0B1E28"/>
<path d="M1222.2 160.7V155.3H1227.6V160.7H1222.2Z" fill="#0B1E28"/>
<path d="M1236 160.7V132.5H1240.3V136.5C1241.2 135.1 1242.4 134 1243.8 133.2C1245.3 132.4 1246.9 131.9 1248.8 131.9C1250.9 131.9 1252.6 132.3 1253.9 133.2C1255.2 134.1 1256.2 135.3 1256.7 136.8C1258.9 133.5 1261.8 131.9 1265.4 131.9C1268.2 131.9 1270.4 132.7 1271.9 134.2C1273.4 135.8 1274.2 138.1 1274.2 141.4V160.8H1269.4V143C1269.4 141.1 1269.2 139.7 1268.9 138.9C1268.6 138.1 1268 137.4 1267.2 136.9C1266.4 136.4 1265.4 136.1 1264.3 136.1C1262.3 136.1 1260.7 136.8 1259.4 138.1C1258.1 139.4 1257.4 141.5 1257.4 144.4V160.8H1252.6V142.4C1252.6 140.3 1252.2 138.7 1251.4 137.6C1250.6 136.5 1249.3 136 1247.6 136C1246.3 136 1245 136.4 1243.9 137.1C1242.8 137.8 1241.9 138.8 1241.4 140.2C1240.9 141.6 1240.6 143.5 1240.6 146.1V160.7H1236Z" fill="#0B1E28"/>
<path d="M1281.1 171.6L1280.6 167.1C1281.6 167.4 1282.6 167.5 1283.3 167.5C1284.4 167.5 1285.2 167.3 1285.9 167C1286.5 166.6 1287.1 166.1 1287.5 165.5C1287.8 165 1288.3 163.8 1289 161.9C1289.1 161.6 1289.2 161.2 1289.4 160.7L1278.7 132.4H1283.9L1289.8 148.7C1290.6 150.8 1291.2 153 1291.8 155.2C1292.3 153 1293 150.9 1293.8 148.8L1299.8 132.3H1304.6L1293.9 161C1292.7 164.1 1291.9 166.2 1291.2 167.4C1290.3 169 1289.4 170.1 1288.3 170.9C1287.2 171.6 1285.9 172 1284.4 172C1283.3 172.2 1282.2 172 1281.1 171.6Z" fill="#0B1E28"/>
<path d="M1308.5 171.6V132.6H1312.9V136.3C1313.9 134.9 1315.1 133.8 1316.4 133.1C1317.7 132.4 1319.3 132 1321.1 132C1323.5 132 1325.6 132.6 1327.5 133.9C1329.3 135.1 1330.7 136.9 1331.7 139.1C1332.6 141.4 1333.1 143.8 1333.1 146.5C1333.1 149.4 1332.6 152 1331.5 154.3C1330.4 156.6 1329 158.4 1327 159.6C1325 160.8 1322.9 161.4 1320.8 161.4C1319.2 161.4 1317.8 161.1 1316.5 160.4C1315.2 159.7 1314.2 158.9 1313.4 157.8V171.5H1308.5V171.6ZM1312.9 146.8C1312.9 150.4 1313.6 153.1 1315.1 154.9C1316.6 156.6 1318.4 157.5 1320.4 157.5C1322.5 157.5 1324.3 156.6 1325.9 154.8C1327.4 153 1328.2 150.2 1328.2 146.4C1328.2 142.8 1327.5 140.1 1326 138.3C1324.5 136.5 1322.8 135.6 1320.7 135.6C1318.7 135.6 1316.9 136.6 1315.3 138.5C1313.7 140.4 1312.9 143.2 1312.9 146.8Z" fill="#0B1E28"/>
<path d="M1358.1 151.7L1363 152.3C1362.2 155.2 1360.8 157.4 1358.7 159C1356.6 160.6 1353.9 161.4 1350.6 161.4C1346.5 161.4 1343.2 160.1 1340.8 157.6C1338.4 155.1 1337.2 151.5 1337.2 146.9C1337.2 142.2 1338.4 138.5 1340.9 135.8C1343.3 133.2 1346.5 131.9 1350.4 131.9C1354.2 131.9 1357.3 133.2 1359.6 135.8C1362 138.4 1363.2 142 1363.2 146.6C1363.2 146.9 1363.2 147.3 1363.2 147.9H1342.1C1342.3 151 1343.2 153.4 1344.7 155C1346.2 156.6 1348.2 157.5 1350.6 157.5C1352.4 157.5 1353.9 157 1355.1 156.1C1356.4 155.1 1357.4 153.7 1358.1 151.7ZM1342.4 143.9H1358.2C1358 141.5 1357.4 139.7 1356.4 138.6C1354.9 136.8 1352.9 135.8 1350.5 135.8C1348.3 135.8 1346.5 136.5 1345 138C1343.4 139.5 1342.6 141.5 1342.4 143.9Z" fill="#0B1E28"/>
<path d="M1370.5 160.7V155.3H1375.9V160.7H1370.5Z" fill="#0B1E28"/>
<path d="M1402.6 150.4L1407.3 151C1406.8 154.2 1405.5 156.8 1403.4 158.6C1401.3 160.4 1398.7 161.4 1395.6 161.4C1391.7 161.4 1388.6 160.1 1386.3 157.6C1384 155.1 1382.8 151.5 1382.8 146.7C1382.8 143.7 1383.3 141 1384.3 138.7C1385.3 136.4 1386.8 134.7 1388.9 133.6C1391 132.5 1393.2 131.9 1395.6 131.9C1398.7 131.9 1401.2 132.7 1403.1 134.2C1405 135.7 1406.3 138 1406.8 140.8L1402.1 141.5C1401.7 139.6 1400.9 138.2 1399.7 137.2C1398.6 136.2 1397.2 135.8 1395.6 135.8C1393.2 135.8 1391.2 136.7 1389.7 138.4C1388.2 140.1 1387.4 142.9 1387.4 146.6C1387.4 150.4 1388.1 153.1 1389.6 154.9C1391.1 156.6 1392.9 157.5 1395.3 157.5C1397.2 157.5 1398.7 156.9 1400 155.8C1401.5 154.6 1402.3 152.8 1402.6 150.4Z" fill="#0B1E28"/>
<path d="M1409.7 146.6C1409.7 141.4 1411.2 137.5 1414.1 135C1416.5 132.9 1419.5 131.9 1423 131.9C1426.9 131.9 1430.1 133.2 1432.5 135.7C1435 138.2 1436.2 141.8 1436.2 146.2C1436.2 149.8 1435.7 152.7 1434.6 154.8C1433.5 156.9 1431.9 158.5 1429.8 159.7C1427.7 160.9 1425.4 161.4 1423 161.4C1419 161.4 1415.9 160.1 1413.4 157.6C1410.9 155 1409.7 151.4 1409.7 146.6ZM1414.6 146.6C1414.6 150.2 1415.4 152.9 1417 154.7C1418.6 156.5 1420.6 157.4 1423 157.4C1425.4 157.4 1427.4 156.5 1428.9 154.7C1430.5 152.9 1431.3 150.1 1431.3 146.4C1431.3 142.9 1430.5 140.3 1428.9 138.5C1427.3 136.7 1425.3 135.8 1423 135.8C1420.6 135.8 1418.6 136.7 1417 138.5C1415.4 140.3 1414.6 143 1414.6 146.6Z" fill="#0B1E28"/>
<path d="M1441.7 160.7V132.5H1446V136.5C1446.9 135.1 1448.1 134 1449.5 133.2C1451 132.4 1452.6 131.9 1454.5 131.9C1456.6 131.9 1458.3 132.3 1459.6 133.2C1460.9 134.1 1461.9 135.3 1462.4 136.8C1464.6 133.5 1467.5 131.9 1471.1 131.9C1473.9 131.9 1476.1 132.7 1477.6 134.2C1479.1 135.8 1479.9 138.1 1479.9 141.4V160.8H1475.1V143C1475.1 141.1 1474.9 139.7 1474.6 138.9C1474.3 138.1 1473.7 137.4 1472.9 136.9C1472.1 136.4 1471.1 136.1 1470 136.1C1468 136.1 1466.4 136.8 1465.1 138.1C1463.8 139.4 1463.1 141.5 1463.1 144.4V160.8H1458.3V142.4C1458.3 140.3 1457.9 138.7 1457.1 137.6C1456.3 136.5 1455 136 1453.3 136C1452 136 1450.7 136.4 1449.6 137.1C1448.5 137.8 1447.6 138.8 1447.1 140.2C1446.6 141.6 1446.3 143.5 1446.3 146.1V160.7H1441.7Z" fill="#0B1E28"/>
<path d="M1072.4 241.7V246.4H1046C1046 245.2 1046.2 244.1 1046.6 243C1047.3 241.2 1048.3 239.4 1049.8 237.7C1051.3 236 1053.4 233.9 1056.2 231.7C1060.5 228.1 1063.5 225.3 1065 223.3C1066.5 221.2 1067.3 219.3 1067.3 217.4C1067.3 215.5 1066.6 213.8 1065.2 212.5C1063.8 211.2 1062 210.5 1059.8 210.5C1057.4 210.5 1055.6 211.2 1054.1 212.6C1052.6 214 1052 215.9 1052 218.4L1047 217.9C1047.3 214.1 1048.6 211.3 1050.9 209.3C1053.1 207.3 1056.2 206.3 1060 206.3C1063.8 206.3 1066.9 207.4 1069.1 209.5C1071.3 211.6 1072.4 214.3 1072.4 217.4C1072.4 219 1072.1 220.6 1071.4 222.1C1070.7 223.6 1069.7 225.3 1068.1 227C1066.6 228.7 1064.1 231 1060.5 234C1057.6 236.5 1055.7 238.1 1054.8 239C1054 239.9 1053.3 240.8 1052.7 241.7H1072.4Z" fill="#0B1E28"/>
<path d="M1096.1 246.4H1091.2V215.2C1090 216.3 1088.5 217.4 1086.6 218.6C1084.7 219.8 1083 220.6 1081.4 221.1V216.4C1084.1 215.1 1086.5 213.6 1088.6 211.7C1090.6 209.9 1092.1 208.1 1093 206.4H1096.2V246.4H1096.1Z" fill="#0B1E28"/>
<path d="M1109.4 237.2L1114.1 236.8C1114.5 239 1115.3 240.6 1116.4 241.6C1117.5 242.6 1119 243.1 1120.7 243.1C1122.2 243.1 1123.5 242.8 1124.7 242.1C1125.8 241.4 1126.8 240.5 1127.5 239.3C1128.2 238.1 1128.8 236.6 1129.3 234.6C1129.8 232.6 1130 230.6 1130 228.6C1130 228.4 1130 228.1 1130 227.6C1129 229.2 1127.7 230.4 1126 231.4C1124.3 232.4 1122.5 232.9 1120.5 232.9C1117.2 232.9 1114.4 231.7 1112.1 229.3C1109.8 226.9 1108.7 223.7 1108.7 219.8C1108.7 215.8 1109.9 212.5 1112.3 210C1114.7 207.5 1117.7 206.3 1121.3 206.3C1123.9 206.3 1126.3 207 1128.4 208.4C1130.5 209.8 1132.2 211.8 1133.3 214.4C1134.4 217 1135 220.7 1135 225.6C1135 230.7 1134.4 234.8 1133.3 237.8C1132.2 240.8 1130.5 243.1 1128.4 244.7C1126.2 246.3 1123.7 247.1 1120.7 247.1C1117.6 247.1 1115 246.2 1113.1 244.5C1110.9 242.8 1109.8 240.3 1109.4 237.2ZM1129.4 219.6C1129.4 216.8 1128.7 214.6 1127.2 212.9C1125.7 211.2 1123.9 210.4 1121.8 210.4C1119.6 210.4 1117.7 211.3 1116.1 213.1C1114.5 214.9 1113.7 217.2 1113.7 220C1113.7 222.5 1114.5 224.6 1116 226.2C1117.5 227.8 1119.4 228.6 1121.7 228.6C1124 228.6 1125.8 227.8 1127.3 226.2C1128.7 224.6 1129.4 222.4 1129.4 219.6Z" fill="#0B1E28"/>
<path d="M1158.1 246.4H1153.2V215.2C1152 216.3 1150.5 217.4 1148.6 218.6C1146.7 219.8 1145 220.6 1143.4 221.1V216.4C1146.1 215.1 1148.5 213.6 1150.6 211.7C1152.6 209.9 1154.1 208.1 1155 206.4H1158.2V246.4H1158.1Z" fill="#0B1E28"/>
<path d="M1167.5 257.5V254H1200V257.5H1167.5Z" fill="#0B1E28"/>
<path d="M1213.7 246.4V211.2H1200.6V206.5H1232.2V211.2H1219V246.4H1213.7Z" fill="#0B1E28"/>
<path d="M1266.1 232.4L1271.4 233.7C1270.3 238 1268.3 241.3 1265.4 243.6C1262.5 245.9 1259 247 1254.9 247C1250.6 247 1247.1 246.1 1244.4 244.4C1241.7 242.6 1239.7 240.1 1238.3 236.8C1236.9 233.5 1236.2 229.9 1236.2 226.1C1236.2 221.9 1237 218.3 1238.6 215.2C1240.2 212.1 1242.4 209.8 1245.4 208.2C1248.3 206.6 1251.6 205.8 1255.1 205.8C1259.1 205.8 1262.4 206.8 1265.2 208.8C1267.9 210.8 1269.8 213.7 1270.9 217.4L1265.7 218.6C1264.8 215.7 1263.4 213.6 1261.7 212.3C1259.9 211 1257.7 210.3 1255.1 210.3C1252 210.3 1249.5 211 1247.4 212.5C1245.3 214 1243.9 215.9 1243.1 218.4C1242.3 220.9 1241.8 223.4 1241.8 226.1C1241.8 229.5 1242.3 232.5 1243.3 235C1244.3 237.5 1245.8 239.4 1247.9 240.7C1250 242 1252.2 242.6 1254.7 242.6C1257.7 242.6 1260.2 241.7 1262.2 240C1264 238.3 1265.4 235.8 1266.1 232.4Z" fill="#0B1E28"/>
<path d="M1273.5 246.4L1288.8 206.5H1294.5L1310.8 246.4H1304.8L1300.1 234.3H1283.4L1279 246.4H1273.5ZM1285 230.1H1298.5L1294.3 219.1C1293 215.7 1292.1 213 1291.5 210.8C1291 213.4 1290.3 215.9 1289.4 218.4L1285 230.1Z" fill="#0B1E28"/>
<path d="M1313.1 235.9L1318 235.2C1318.6 238 1319.5 240 1320.9 241.2C1322.3 242.4 1323.9 243 1325.8 243C1328.1 243 1330 242.2 1331.6 240.6C1333.2 239 1334 237 1334 234.7C1334 232.5 1333.3 230.6 1331.8 229.1C1330.3 227.6 1328.5 226.9 1326.2 226.9C1325.3 226.9 1324.1 227.1 1322.7 227.4L1323.2 223.1C1323.5 223.1 1323.8 223.2 1324 223.2C1326.1 223.2 1328 222.7 1329.6 221.6C1331.3 220.5 1332.1 218.8 1332.1 216.6C1332.1 214.8 1331.5 213.3 1330.3 212.1C1329.1 210.9 1327.5 210.3 1325.6 210.3C1323.7 210.3 1322.1 210.9 1320.8 212.1C1319.5 213.3 1318.7 215.1 1318.4 217.5L1313.5 216.6C1314.1 213.3 1315.5 210.8 1317.6 209C1319.7 207.2 1322.4 206.3 1325.5 206.3C1327.7 206.3 1329.7 206.8 1331.5 207.7C1333.3 208.6 1334.7 209.9 1335.7 211.5C1336.7 213.1 1337.2 214.8 1337.2 216.6C1337.2 218.3 1336.7 219.9 1335.8 221.3C1334.9 222.7 1333.5 223.8 1331.7 224.7C1334.1 225.2 1335.9 226.4 1337.2 228.1C1338.5 229.8 1339.2 232 1339.2 234.5C1339.2 238 1337.9 240.9 1335.4 243.4C1332.9 245.8 1329.6 247 1325.8 247C1322.3 247 1319.4 246 1317.1 243.9C1314.7 241.9 1313.4 239.2 1313.1 235.9Z" fill="#0B1E28"/>
<path d="M1340.9 257.5V254H1373.4V257.5H1340.9Z" fill="#0B1E28"/>
<path d="M1376.8 246.4V206.5H1391.8C1394.8 206.5 1397.3 206.9 1399.1 207.7C1400.9 208.5 1402.4 209.8 1403.4 211.4C1404.4 213.1 1405 214.8 1405 216.7C1405 218.4 1404.5 220 1403.6 221.5C1402.7 223 1401.3 224.2 1399.4 225.1C1401.8 225.8 1403.7 227 1405 228.7C1406.3 230.4 1406.9 232.4 1406.9 234.7C1406.9 236.6 1406.5 238.3 1405.7 239.9C1404.9 241.5 1403.9 242.7 1402.8 243.6C1401.6 244.5 1400.2 245.1 1398.4 245.6C1396.6 246 1394.5 246.3 1392 246.3H1376.8V246.4ZM1382.1 223.3H1390.7C1393 223.3 1394.7 223.1 1395.7 222.8C1397 222.4 1398.1 221.7 1398.7 220.8C1399.3 219.9 1399.7 218.7 1399.7 217.3C1399.7 216 1399.4 214.8 1398.7 213.8C1398.1 212.8 1397.2 212.1 1396 211.7C1394.8 211.3 1392.8 211.1 1389.9 211.1H1381.9V223.3H1382.1ZM1382.1 241.7H1392C1393.7 241.7 1394.9 241.6 1395.6 241.5C1396.8 241.3 1397.8 240.9 1398.6 240.4C1399.4 239.9 1400.1 239.2 1400.6 238.2C1401.1 237.2 1401.4 236.1 1401.4 234.8C1401.4 233.3 1401 232 1400.3 230.9C1399.5 229.8 1398.5 229 1397.1 228.6C1395.7 228.2 1393.8 227.9 1391.3 227.9H1382.1V241.7Z" fill="#0B1E28"/>
<path d="M1409.8 246.4L1425.1 206.5H1430.8L1447.1 246.4H1441.1L1436.4 234.3H1419.7L1415.3 246.4H1409.8ZM1421.3 230.1H1434.8L1430.6 219.1C1429.3 215.7 1428.4 213 1427.8 210.8C1427.3 213.4 1426.6 215.9 1425.7 218.4L1421.3 230.1Z" fill="#0B1E28"/>
<path d="M1449.6 233.6L1454.6 233.2C1454.8 235.2 1455.4 236.8 1456.2 238.1C1457.1 239.4 1458.4 240.4 1460.2 241.2C1462 242 1464.1 242.4 1466.3 242.4C1468.3 242.4 1470.1 242.1 1471.6 241.5C1473.1 240.9 1474.3 240.1 1475 239C1475.8 238 1476.1 236.8 1476.1 235.6C1476.1 234.3 1475.7 233.3 1475 232.3C1474.3 231.4 1473.1 230.6 1471.4 229.9C1470.3 229.5 1468 228.8 1464.3 228C1460.6 227.2 1458.1 226.3 1456.6 225.5C1454.7 224.5 1453.3 223.3 1452.3 221.8C1451.3 220.3 1450.9 218.7 1450.9 216.8C1450.9 214.8 1451.5 212.9 1452.6 211.2C1453.7 209.4 1455.4 208.1 1457.6 207.2C1459.8 206.3 1462.2 205.8 1464.9 205.8C1467.9 205.8 1470.5 206.3 1472.7 207.2C1475 208.2 1476.7 209.6 1477.9 211.4C1479.1 213.3 1479.8 215.3 1479.9 217.7L1474.8 218.1C1474.5 215.6 1473.6 213.7 1472 212.4C1470.4 211.1 1468.1 210.5 1465 210.5C1461.8 210.5 1459.5 211.1 1458 212.3C1456.5 213.5 1455.8 214.9 1455.8 216.5C1455.8 217.9 1456.3 219.1 1457.4 220C1458.4 220.9 1461.1 221.9 1465.4 222.8C1469.7 223.8 1472.6 224.6 1474.2 225.3C1476.5 226.4 1478.2 227.7 1479.3 229.4C1480.4 231 1481 232.9 1481 235.1C1481 237.2 1480.4 239.2 1479.2 241.1C1478 243 1476.2 244.4 1474 245.5C1471.7 246.5 1469.2 247.1 1466.3 247.1C1462.7 247.1 1459.7 246.6 1457.2 245.5C1454.8 244.4 1452.8 242.9 1451.5 240.8C1450.4 238.7 1449.7 236.3 1449.6 233.6Z" fill="#0B1E28"/>
<path d="M1488.7 246.4V206.5H1517.5V211.2H1494V223.4H1516V228.1H1494V241.7H1518.5V246.4H1488.7Z" fill="#0B1E28"/>
<path d="M1520.6 257.5V254H1553.1V257.5H1520.6Z" fill="#0B1E28"/>
<path d="M1568.1 246.4L1552.6 206.5H1558.3L1568.7 235.5C1569.5 237.8 1570.2 240 1570.8 242C1571.4 239.8 1572.1 237.6 1572.9 235.5L1583.7 206.5H1589.1L1573.5 246.4H1568.1Z" fill="#0B1E28"/>
</g>
<g filter="url(#filter1_ddddii_9_646)">
<path d="M1064.4 531.8C1072.35 531.8 1078.8 525.353 1078.8 517.4C1078.8 509.447 1072.35 503 1064.4 503C1056.45 503 1050 509.447 1050 517.4C1050 525.353 1056.45 531.8 1064.4 531.8Z" fill="url(#paint1_linear_9_646)"/>
</g>
<g filter="url(#filter2_ddddii_9_646)">
<path d="M1116.9 531.8C1124.85 531.8 1131.3 525.353 1131.3 517.4C1131.3 509.447 1124.85 503 1116.9 503C1108.95 503 1102.5 509.447 1102.5 517.4C1102.5 525.353 1108.95 531.8 1116.9 531.8Z" fill="url(#paint2_linear_9_646)"/>
</g>
<g filter="url(#filter3_ddddii_9_646)">
<path d="M1064.4 582.9C1072.35 582.9 1078.8 576.453 1078.8 568.5C1078.8 560.547 1072.35 554.1 1064.4 554.1C1056.45 554.1 1050 560.547 1050 568.5C1050 576.453 1056.45 582.9 1064.4 582.9Z" fill="url(#paint3_linear_9_646)"/>
</g>
<g filter="url(#filter4_ddddii_9_646)">
<path d="M1116.9 582.9C1124.85 582.9 1131.3 576.453 1131.3 568.5C1131.3 560.547 1124.85 554.1 1116.9 554.1C1108.95 554.1 1102.5 560.547 1102.5 568.5C1102.5 576.453 1108.95 582.9 1116.9 582.9Z" fill="url(#paint4_linear_9_646)"/>
</g>
<g filter="url(#filter5_ddddii_9_646)">
<path d="M1064.4 634C1072.35 634 1078.8 627.553 1078.8 619.6C1078.8 611.647 1072.35 605.2 1064.4 605.2C1056.45 605.2 1050 611.647 1050 619.6C1050 627.553 1056.45 634 1064.4 634Z" fill="url(#paint5_linear_9_646)"/>
</g>
<g filter="url(#filter6_ddddii_9_646)">
<path d="M1116.9 634C1124.85 634 1131.3 627.553 1131.3 619.6C1131.3 611.647 1124.85 605.2 1116.9 605.2C1108.95 605.2 1102.5 611.647 1102.5 619.6C1102.5 627.553 1108.95 634 1116.9 634Z" fill="url(#paint6_linear_9_646)"/>
</g>
<g filter="url(#filter7_ddiiii_9_646)">
<path d="M496.973 455V407.04H506.525L517.877 440.998C518.924 444.16 519.688 446.527 520.167 448.097C520.713 446.352 521.563 443.79 522.719 440.409L534.202 407.04H542.741V455H536.623V414.859L522.687 455H516.961L503.09 414.172V455H496.973ZM551.966 468.38L551.312 462.852C552.599 463.201 553.722 463.375 554.682 463.375C555.99 463.375 557.037 463.157 557.822 462.721C558.607 462.285 559.251 461.674 559.752 460.889C560.123 460.3 560.723 458.839 561.552 456.505C561.661 456.178 561.835 455.698 562.075 455.065L548.891 420.257H555.238L562.468 440.376C563.406 442.928 564.245 445.611 564.987 448.424C565.663 445.72 566.47 443.081 567.408 440.507L574.834 420.257H580.723L567.506 455.589C566.088 459.406 564.987 462.034 564.202 463.473C563.155 465.414 561.955 466.832 560.603 467.726C559.251 468.642 557.637 469.1 555.761 469.1C554.627 469.1 553.362 468.86 551.966 468.38ZM585.728 468.315V420.257H591.093V424.771C592.358 423.005 593.787 421.685 595.379 420.813C596.971 419.919 598.901 419.472 601.169 419.472C604.136 419.472 606.753 420.235 609.021 421.762C611.289 423.288 613.001 425.448 614.157 428.239C615.313 431.009 615.891 434.052 615.891 437.367C615.891 440.922 615.248 444.128 613.961 446.985C612.696 449.82 610.842 452.001 608.399 453.528C605.979 455.033 603.427 455.785 600.744 455.785C598.781 455.785 597.015 455.371 595.444 454.542C593.896 453.713 592.62 452.666 591.617 451.401V468.315H585.728ZM591.061 437.825C591.061 442.296 591.966 445.6 593.776 447.737C595.586 449.875 597.778 450.943 600.352 450.943C602.969 450.943 605.204 449.842 607.058 447.639C608.934 445.415 609.872 441.979 609.872 437.334C609.872 432.907 608.956 429.591 607.124 427.389C605.313 425.186 603.143 424.084 600.613 424.084C598.105 424.084 595.881 425.262 593.939 427.618C592.02 429.951 591.061 433.354 591.061 437.825ZM646.807 443.812L652.892 444.564C651.932 448.119 650.154 450.878 647.559 452.841C644.964 454.804 641.649 455.785 637.614 455.785C632.532 455.785 628.497 454.226 625.509 451.107C622.543 447.966 621.06 443.572 621.06 437.923C621.06 432.078 622.565 427.541 625.575 424.313C628.584 421.086 632.488 419.472 637.287 419.472C641.932 419.472 645.727 421.053 648.671 424.215C651.616 427.378 653.088 431.827 653.088 437.563C653.088 437.912 653.077 438.435 653.055 439.133H627.145C627.363 442.95 628.443 445.873 630.384 447.901C632.325 449.929 634.746 450.943 637.646 450.943C639.806 450.943 641.649 450.376 643.175 449.242C644.702 448.108 645.912 446.298 646.807 443.812ZM627.472 434.292H646.872C646.61 431.369 645.869 429.177 644.647 427.716C642.772 425.448 640.34 424.313 637.352 424.313C634.648 424.313 632.368 425.219 630.515 427.029C628.683 428.839 627.668 431.26 627.472 434.292Z" fill="#091922"/>
</g>
<defs>
<filter id="filter0_ddddii_9_646" x="437" y="304" width="276.6" height="276.6" filterUnits="userSpaceOnUse" color-interpolation-filters="sRGB">
<feFlood flood-opacity="0" result="BackgroundImageFix"/>
<feColorMatrix in="SourceAlpha" type="matrix" values="0 0 0 0 0 0 0 0 0 0 0 0 0 0 0 0 0 0 127 0" result="hardAlpha"/>
<feOffset dx="3" dy="3"/>
<feGaussianBlur stdDeviation="4"/>
<feColorMatrix type="matrix" values="0 0 0 0 0.0117647 0 0 0 0 0.0392157 0 0 0 0 0.0509804 0 0 0 0.9 0"/>
<feBlend mode="normal" in2="BackgroundImageFix" result="effect1_dropShadow_9_646"/>
<feColorMatrix in="SourceAlpha" type="matrix" values="0 0 0 0 0 0 0 0 0 0 0 0 0 0 0 0 0 0 127 0" result="hardAlpha"/>
<feOffset dx="-3" dy="-3"/>
<feGaussianBlur stdDeviation="3"/>
<feColorMatrix type="matrix" values="0 0 0 0 0.0509804 0 0 0 0 0.14902 0 0 0 0 0.207843 0 0 0 0.9 0"/>
<feBlend mode="normal" in2="effect1_dropShadow_9_646" result="effect2_dropShadow_9_646"/>
<feColorMatrix in="SourceAlpha" type="matrix" values="0 0 0 0 0 0 0 0 0 0 0 0 0 0 0 0 0 0 127 0" result="hardAlpha"/>
<feOffset dx="3" dy="-3"/>
<feGaussianBlur stdDeviation="3"/>
<feColorMatrix type="matrix" values="0 0 0 0 0.0117647 0 0 0 0 0.0392157 0 0 0 0 0.0509804 0 0 0 0.2 0"/>
<feBlend mode="normal" in2="effect2_dropShadow_9_646" result="effect3_dropShadow_9_646"/>
<feColorMatrix in="SourceAlpha" type="matrix" values="0 0 0 0 0 0 0 0 0 0 0 0 0 0 0 0 0 0 127 0" result="hardAlpha"/>
<feOffset dx="-3" dy="3"/>
<feGaussianBlur stdDeviation="3"/>
<feColorMatrix type="matrix" values="0 0 0 0 0.0117647 0 0 0 0 0.0392157 0 0 0 0 0.0509804 0 0 0 0.2 0"/>
<feBlend mode="normal" in2="effect3_dropShadow_9_646" result="effect4_dropShadow_9_646"/>
<feBlend mode="normal" in="SourceGraphic" in2="effect4_dropShadow_9_646" result="shape"/>
<feColorMatrix in="SourceAlpha" type="matrix" values="0 0 0 0 0 0 0 0 0 0 0 0 0 0 0 0 0 0 127 0" result="hardAlpha"/>
<feOffset dx="-1" dy="-1"/>
<feGaussianBlur stdDeviation="1"/>
<feComposite in2="hardAlpha" operator="arithmetic" k2="-1" k3="1"/>
<feColorMatrix type="matrix" values="0 0 0 0 0.0117647 0 0 0 0 0.0392157 0 0 0 0 0.0509804 0 0 0 0.5 0"/>
<feBlend mode="normal" in2="shape" result="effect5_innerShadow_9_646"/>
<feColorMatrix in="SourceAlpha" type="matrix" values="0 0 0 0 0 0 0 0 0 0 0 0 0 0 0 0 0 0 127 0" result="hardAlpha"/>
<feOffset dx="1" dy="1"/>
<feGaussianBlur stdDeviation="1"/>
<feComposite in2="hardAlpha" operator="arithmetic" k2="-1" k3="1"/>
<feColorMatrix type="matrix" values="0 0 0 0 0.0509804 0 0 0 0 0.14902 0 0 0 0 0.207843 0 0 0 0.3 0"/>
<feBlend mode="normal" in2="effect5_innerShadow_9_646" result="effect6_innerShadow_9_646"/>
</filter>
<filter id="filter1_ddddii_9_646" x="1044" y="497" width="41.8" height="41.8" filterUnits="userSpaceOnUse" color-interpolation-filters="sRGB">
<feFlood flood-opacity="0" result="BackgroundImageFix"/>
<feColorMatrix in="SourceAlpha" type="matrix" values="0 0 0 0 0 0 0 0 0 0 0 0 0 0 0 0 0 0 127 0" result="hardAlpha"/>
<feOffset dx="2" dy="2"/>
<feGaussianBlur stdDeviation="2.5"/>
<feColorMatrix type="matrix" values="0 0 0 0 0.0117647 0 0 0 0 0.0392157 0 0 0 0 0.0509804 0 0 0 0.9 0"/>
<feBlend mode="normal" in2="BackgroundImageFix" result="effect1_dropShadow_9_646"/>
<feColorMatrix in="SourceAlpha" type="matrix" values="0 0 0 0 0 0 0 0 0 0 0 0 0 0 0 0 0 0 127 0" result="hardAlpha"/>
<feOffset dx="-2" dy="-2"/>
<feGaussianBlur stdDeviation="2"/>
<feColorMatrix type="matrix" values="0 0 0 0 0.0509804 0 0 0 0 0.14902 0 0 0 0 0.207843 0 0 0 0.9 0"/>
<feBlend mode="normal" in2="effect1_dropShadow_9_646" result="effect2_dropShadow_9_646"/>
<feColorMatrix in="SourceAlpha" type="matrix" values="0 0 0 0 0 0 0 0 0 0 0 0 0 0 0 0 0 0 127 0" result="hardAlpha"/>
<feOffset dx="2" dy="-2"/>
<feGaussianBlur stdDeviation="2"/>
<feColorMatrix type="matrix" values="0 0 0 0 0.0117647 0 0 0 0 0.0392157 0 0 0 0 0.0509804 0 0 0 0.2 0"/>
<feBlend mode="normal" in2="effect2_dropShadow_9_646" result="effect3_dropShadow_9_646"/>
<feColorMatrix in="SourceAlpha" type="matrix" values="0 0 0 0 0 0 0 0 0 0 0 0 0 0 0 0 0 0 127 0" result="hardAlpha"/>
<feOffset dx="-2" dy="2"/>
<feGaussianBlur stdDeviation="2"/>
<feColorMatrix type="matrix" values="0 0 0 0 0.0117647 0 0 0 0 0.0392157 0 0 0 0 0.0509804 0 0 0 0.2 0"/>
<feBlend mode="normal" in2="effect3_dropShadow_9_646" result="effect4_dropShadow_9_646"/>
<feBlend mode="normal" in="SourceGraphic" in2="effect4_dropShadow_9_646" result="shape"/>
<feColorMatrix in="SourceAlpha" type="matrix" values="0 0 0 0 0 0 0 0 0 0 0 0 0 0 0 0 0 0 127 0" result="hardAlpha"/>
<feOffset dx="-1" dy="-1"/>
<feGaussianBlur stdDeviation="1"/>
<feComposite in2="hardAlpha" operator="arithmetic" k2="-1" k3="1"/>
<feColorMatrix type="matrix" values="0 0 0 0 0.0117647 0 0 0 0 0.0392157 0 0 0 0 0.0509804 0 0 0 0.5 0"/>
<feBlend mode="normal" in2="shape" result="effect5_innerShadow_9_646"/>
<feColorMatrix in="SourceAlpha" type="matrix" values="0 0 0 0 0 0 0 0 0 0 0 0 0 0 0 0 0 0 127 0" result="hardAlpha"/>
<feOffset dx="1" dy="1"/>
<feGaussianBlur stdDeviation="1"/>
<feComposite in2="hardAlpha" operator="arithmetic" k2="-1" k3="1"/>
<feColorMatrix type="matrix" values="0 0 0 0 0.0509804 0 0 0 0 0.14902 0 0 0 0 0.207843 0 0 0 0.3 0"/>
<feBlend mode="normal" in2="effect5_innerShadow_9_646" result="effect6_innerShadow_9_646"/>
</filter>
<filter id="filter2_ddddii_9_646" x="1096.5" y="497" width="41.8" height="41.8" filterUnits="userSpaceOnUse" color-interpolation-filters="sRGB">
<feFlood flood-opacity="0" result="BackgroundImageFix"/>
<feColorMatrix in="SourceAlpha" type="matrix" values="0 0 0 0 0 0 0 0 0 0 0 0 0 0 0 0 0 0 127 0" result="hardAlpha"/>
<feOffset dx="2" dy="2"/>
<feGaussianBlur stdDeviation="2.5"/>
<feColorMatrix type="matrix" values="0 0 0 0 0.0117647 0 0 0 0 0.0392157 0 0 0 0 0.0509804 0 0 0 0.9 0"/>
<feBlend mode="normal" in2="BackgroundImageFix" result="effect1_dropShadow_9_646"/>
<feColorMatrix in="SourceAlpha" type="matrix" values="0 0 0 0 0 0 0 0 0 0 0 0 0 0 0 0 0 0 127 0" result="hardAlpha"/>
<feOffset dx="-2" dy="-2"/>
<feGaussianBlur stdDeviation="2"/>
<feColorMatrix type="matrix" values="0 0 0 0 0.0509804 0 0 0 0 0.14902 0 0 0 0 0.207843 0 0 0 0.9 0"/>
<feBlend mode="normal" in2="effect1_dropShadow_9_646" result="effect2_dropShadow_9_646"/>
<feColorMatrix in="SourceAlpha" type="matrix" values="0 0 0 0 0 0 0 0 0 0 0 0 0 0 0 0 0 0 127 0" result="hardAlpha"/>
<feOffset dx="2" dy="-2"/>
<feGaussianBlur stdDeviation="2"/>
<feColorMatrix type="matrix" values="0 0 0 0 0.0117647 0 0 0 0 0.0392157 0 0 0 0 0.0509804 0 0 0 0.2 0"/>
<feBlend mode="normal" in2="effect2_dropShadow_9_646" result="effect3_dropShadow_9_646"/>
<feColorMatrix in="SourceAlpha" type="matrix" values="0 0 0 0 0 0 0 0 0 0 0 0 0 0 0 0 0 0 127 0" result="hardAlpha"/>
<feOffset dx="-2" dy="2"/>
<feGaussianBlur stdDeviation="2"/>
<feColorMatrix type="matrix" values="0 0 0 0 0.0117647 0 0 0 0 0.0392157 0 0 0 0 0.0509804 0 0 0 0.2 0"/>
<feBlend mode="normal" in2="effect3_dropShadow_9_646" result="effect4_dropShadow_9_646"/>
<feBlend mode="normal" in="SourceGraphic" in2="effect4_dropShadow_9_646" result="shape"/>
<feColorMatrix in="SourceAlpha" type="matrix" values="0 0 0 0 0 0 0 0 0 0 0 0 0 0 0 0 0 0 127 0" result="hardAlpha"/>
<feOffset dx="-1" dy="-1"/>
<feGaussianBlur stdDeviation="1"/>
<feComposite in2="hardAlpha" operator="arithmetic" k2="-1" k3="1"/>
<feColorMatrix type="matrix" values="0 0 0 0 0.0117647 0 0 0 0 0.0392157 0 0 0 0 0.0509804 0 0 0 0.5 0"/>
<feBlend mode="normal" in2="shape" result="effect5_innerShadow_9_646"/>
<feColorMatrix in="SourceAlpha" type="matrix" values="0 0 0 0 0 0 0 0 0 0 0 0 0 0 0 0 0 0 127 0" result="hardAlpha"/>
<feOffset dx="1" dy="1"/>
<feGaussianBlur stdDeviation="1"/>
<feComposite in2="hardAlpha" operator="arithmetic" k2="-1" k3="1"/>
<feColorMatrix type="matrix" values="0 0 0 0 0.0509804 0 0 0 0 0.14902 0 0 0 0 0.207843 0 0 0 0.3 0"/>
<feBlend mode="normal" in2="effect5_innerShadow_9_646" result="effect6_innerShadow_9_646"/>
</filter>
<filter id="filter3_ddddii_9_646" x="1044" y="548.1" width="41.8" height="41.8" filterUnits="userSpaceOnUse" color-interpolation-filters="sRGB">
<feFlood flood-opacity="0" result="BackgroundImageFix"/>
<feColorMatrix in="SourceAlpha" type="matrix" values="0 0 0 0 0 0 0 0 0 0 0 0 0 0 0 0 0 0 127 0" result="hardAlpha"/>
<feOffset dx="2" dy="2"/>
<feGaussianBlur stdDeviation="2.5"/>
<feColorMatrix type="matrix" values="0 0 0 0 0.0117647 0 0 0 0 0.0392157 0 0 0 0 0.0509804 0 0 0 0.9 0"/>
<feBlend mode="normal" in2="BackgroundImageFix" result="effect1_dropShadow_9_646"/>
<feColorMatrix in="SourceAlpha" type="matrix" values="0 0 0 0 0 0 0 0 0 0 0 0 0 0 0 0 0 0 127 0" result="hardAlpha"/>
<feOffset dx="-2" dy="-2"/>
<feGaussianBlur stdDeviation="2"/>
<feColorMatrix type="matrix" values="0 0 0 0 0.0509804 0 0 0 0 0.14902 0 0 0 0 0.207843 0 0 0 0.9 0"/>
<feBlend mode="normal" in2="effect1_dropShadow_9_646" result="effect2_dropShadow_9_646"/>
<feColorMatrix in="SourceAlpha" type="matrix" values="0 0 0 0 0 0 0 0 0 0 0 0 0 0 0 0 0 0 127 0" result="hardAlpha"/>
<feOffset dx="2" dy="-2"/>
<feGaussianBlur stdDeviation="2"/>
<feColorMatrix type="matrix" values="0 0 0 0 0.0117647 0 0 0 0 0.0392157 0 0 0 0 0.0509804 0 0 0 0.2 0"/>
<feBlend mode="normal" in2="effect2_dropShadow_9_646" result="effect3_dropShadow_9_646"/>
<feColorMatrix in="SourceAlpha" type="matrix" values="0 0 0 0 0 0 0 0 0 0 0 0 0 0 0 0 0 0 127 0" result="hardAlpha"/>
<feOffset dx="-2" dy="2"/>
<feGaussianBlur stdDeviation="2"/>
<feColorMatrix type="matrix" values="0 0 0 0 0.0117647 0 0 0 0 0.0392157 0 0 0 0 0.0509804 0 0 0 0.2 0"/>
<feBlend mode="normal" in2="effect3_dropShadow_9_646" result="effect4_dropShadow_9_646"/>
<feBlend mode="normal" in="SourceGraphic" in2="effect4_dropShadow_9_646" result="shape"/>
<feColorMatrix in="SourceAlpha" type="matrix" values="0 0 0 0 0 0 0 0 0 0 0 0 0 0 0 0 0 0 127 0" result="hardAlpha"/>
<feOffset dx="-1" dy="-1"/>
<feGaussianBlur stdDeviation="1"/>
<feComposite in2="hardAlpha" operator="arithmetic" k2="-1" k3="1"/>
<feColorMatrix type="matrix" values="0 0 0 0 0.0117647 0 0 0 0 0.0392157 0 0 0 0 0.0509804 0 0 0 0.5 0"/>
<feBlend mode="normal" in2="shape" result="effect5_innerShadow_9_646"/>
<feColorMatrix in="SourceAlpha" type="matrix" values="0 0 0 0 0 0 0 0 0 0 0 0 0 0 0 0 0 0 127 0" result="hardAlpha"/>
<feOffset dx="1" dy="1"/>
<feGaussianBlur stdDeviation="1"/>
<feComposite in2="hardAlpha" operator="arithmetic" k2="-1" k3="1"/>
<feColorMatrix type="matrix" values="0 0 0 0 0.0509804 0 0 0 0 0.14902 0 0 0 0 0.207843 0 0 0 0.3 0"/>
<feBlend mode="normal" in2="effect5_innerShadow_9_646" result="effect6_innerShadow_9_646"/>
</filter>
<filter id="filter4_ddddii_9_646" x="1096.5" y="548.1" width="41.8" height="41.8" filterUnits="userSpaceOnUse" color-interpolation-filters="sRGB">
<feFlood flood-opacity="0" result="BackgroundImageFix"/>
<feColorMatrix in="SourceAlpha" type="matrix" values="0 0 0 0 0 0 0 0 0 0 0 0 0 0 0 0 0 0 127 0" result="hardAlpha"/>
<feOffset dx="2" dy="2"/>
<feGaussianBlur stdDeviation="2.5"/>
<feColorMatrix type="matrix" values="0 0 0 0 0.0117647 0 0 0 0 0.0392157 0 0 0 0 0.0509804 0 0 0 0.9 0"/>
<feBlend mode="normal" in2="BackgroundImageFix" result="effect1_dropShadow_9_646"/>
<feColorMatrix in="SourceAlpha" type="matrix" values="0 0 0 0 0 0 0 0 0 0 0 0 0 0 0 0 0 0 127 0" result="hardAlpha"/>
<feOffset dx="-2" dy="-2"/>
<feGaussianBlur stdDeviation="2"/>
<feColorMatrix type="matrix" values="0 0 0 0 0.0509804 0 0 0 0 0.14902 0 0 0 0 0.207843 0 0 0 0.9 0"/>
<feBlend mode="normal" in2="effect1_dropShadow_9_646" result="effect2_dropShadow_9_646"/>
<feColorMatrix in="SourceAlpha" type="matrix" values="0 0 0 0 0 0 0 0 0 0 0 0 0 0 0 0 0 0 127 0" result="hardAlpha"/>
<feOffset dx="2" dy="-2"/>
<feGaussianBlur stdDeviation="2"/>
<feColorMatrix type="matrix" values="0 0 0 0 0.0117647 0 0 0 0 0.0392157 0 0 0 0 0.0509804 0 0 0 0.2 0"/>
<feBlend mode="normal" in2="effect2_dropShadow_9_646" result="effect3_dropShadow_9_646"/>
<feColorMatrix in="SourceAlpha" type="matrix" values="0 0 0 0 0 0 0 0 0 0 0 0 0 0 0 0 0 0 127 0" result="hardAlpha"/>
<feOffset dx="-2" dy="2"/>
<feGaussianBlur stdDeviation="2"/>
<feColorMatrix type="matrix" values="0 0 0 0 0.0117647 0 0 0 0 0.0392157 0 0 0 0 0.0509804 0 0 0 0.2 0"/>
<feBlend mode="normal" in2="effect3_dropShadow_9_646" result="effect4_dropShadow_9_646"/>
<feBlend mode="normal" in="SourceGraphic" in2="effect4_dropShadow_9_646" result="shape"/>
<feColorMatrix in="SourceAlpha" type="matrix" values="0 0 0 0 0 0 0 0 0 0 0 0 0 0 0 0 0 0 127 0" result="hardAlpha"/>
<feOffset dx="-1" dy="-1"/>
<feGaussianBlur stdDeviation="1"/>
<feComposite in2="hardAlpha" operator="arithmetic" k2="-1" k3="1"/>
<feColorMatrix type="matrix" values="0 0 0 0 0.0117647 0 0 0 0 0.0392157 0 0 0 0 0.0509804 0 0 0 0.5 0"/>
<feBlend mode="normal" in2="shape" result="effect5_innerShadow_9_646"/>
<feColorMatrix in="SourceAlpha" type="matrix" values="0 0 0 0 0 0 0 0 0 0 0 0 0 0 0 0 0 0 127 0" result="hardAlpha"/>
<feOffset dx="1" dy="1"/>
<feGaussianBlur stdDeviation="1"/>
<feComposite in2="hardAlpha" operator="arithmetic" k2="-1" k3="1"/>
<feColorMatrix type="matrix" values="0 0 0 0 0.0509804 0 0 0 0 0.14902 0 0 0 0 0.207843 0 0 0 0.3 0"/>
<feBlend mode="normal" in2="effect5_innerShadow_9_646" result="effect6_innerShadow_9_646"/>
</filter>
<filter id="filter5_ddddii_9_646" x="1044" y="599.2" width="41.8" height="41.8" filterUnits="userSpaceOnUse" color-interpolation-filters="sRGB">
<feFlood flood-opacity="0" result="BackgroundImageFix"/>
<feColorMatrix in="SourceAlpha" type="matrix" values="0 0 0 0 0 0 0 0 0 0 0 0 0 0 0 0 0 0 127 0" result="hardAlpha"/>
<feOffset dx="2" dy="2"/>
<feGaussianBlur stdDeviation="2.5"/>
<feColorMatrix type="matrix" values="0 0 0 0 0.0117647 0 0 0 0 0.0392157 0 0 0 0 0.0509804 0 0 0 0.9 0"/>
<feBlend mode="normal" in2="BackgroundImageFix" result="effect1_dropShadow_9_646"/>
<feColorMatrix in="SourceAlpha" type="matrix" values="0 0 0 0 0 0 0 0 0 0 0 0 0 0 0 0 0 0 127 0" result="hardAlpha"/>
<feOffset dx="-2" dy="-2"/>
<feGaussianBlur stdDeviation="2"/>
<feColorMatrix type="matrix" values="0 0 0 0 0.0509804 0 0 0 0 0.14902 0 0 0 0 0.207843 0 0 0 0.9 0"/>
<feBlend mode="normal" in2="effect1_dropShadow_9_646" result="effect2_dropShadow_9_646"/>
<feColorMatrix in="SourceAlpha" type="matrix" values="0 0 0 0 0 0 0 0 0 0 0 0 0 0 0 0 0 0 127 0" result="hardAlpha"/>
<feOffset dx="2" dy="-2"/>
<feGaussianBlur stdDeviation="2"/>
<feColorMatrix type="matrix" values="0 0 0 0 0.0117647 0 0 0 0 0.0392157 0 0 0 0 0.0509804 0 0 0 0.2 0"/>
<feBlend mode="normal" in2="effect2_dropShadow_9_646" result="effect3_dropShadow_9_646"/>
<feColorMatrix in="SourceAlpha" type="matrix" values="0 0 0 0 0 0 0 0 0 0 0 0 0 0 0 0 0 0 127 0" result="hardAlpha"/>
<feOffset dx="-2" dy="2"/>
<feGaussianBlur stdDeviation="2"/>
<feColorMatrix type="matrix" values="0 0 0 0 0.0117647 0 0 0 0 0.0392157 0 0 0 0 0.0509804 0 0 0 0.2 0"/>
<feBlend mode="normal" in2="effect3_dropShadow_9_646" result="effect4_dropShadow_9_646"/>
<feBlend mode="normal" in="SourceGraphic" in2="effect4_dropShadow_9_646" result="shape"/>
<feColorMatrix in="SourceAlpha" type="matrix" values="0 0 0 0 0 0 0 0 0 0 0 0 0 0 0 0 0 0 127 0" result="hardAlpha"/>
<feOffset dx="-1" dy="-1"/>
<feGaussianBlur stdDeviation="1"/>
<feComposite in2="hardAlpha" operator="arithmetic" k2="-1" k3="1"/>
<feColorMatrix type="matrix" values="0 0 0 0 0.0117647 0 0 0 0 0.0392157 0 0 0 0 0.0509804 0 0 0 0.5 0"/>
<feBlend mode="normal" in2="shape" result="effect5_innerShadow_9_646"/>
<feColorMatrix in="SourceAlpha" type="matrix" values="0 0 0 0 0 0 0 0 0 0 0 0 0 0 0 0 0 0 127 0" result="hardAlpha"/>
<feOffset dx="1" dy="1"/>
<feGaussianBlur stdDeviation="1"/>
<feComposite in2="hardAlpha" operator="arithmetic" k2="-1" k3="1"/>
<feColorMatrix type="matrix" values="0 0 0 0 0.0509804 0 0 0 0 0.14902 0 0 0 0 0.207843 0 0 0 0.3 0"/>
<feBlend mode="normal" in2="effect5_innerShadow_9_646" result="effect6_innerShadow_9_646"/>
</filter>
<filter id="filter6_ddddii_9_646" x="1096.5" y="599.2" width="41.8" height="41.8" filterUnits="userSpaceOnUse" color-interpolation-filters="sRGB">
<feFlood flood-opacity="0" result="BackgroundImageFix"/>
<feColorMatrix in="SourceAlpha" type="matrix" values="0 0 0 0 0 0 0 0 0 0 0 0 0 0 0 0 0 0 127 0" result="hardAlpha"/>
<feOffset dx="2" dy="2"/>
<feGaussianBlur stdDeviation="2.5"/>
<feColorMatrix type="matrix" values="0 0 0 0 0.0117647 0 0 0 0 0.0392157 0 0 0 0 0.0509804 0 0 0 0.9 0"/>
<feBlend mode="normal" in2="BackgroundImageFix" result="effect1_dropShadow_9_646"/>
<feColorMatrix in="SourceAlpha" type="matrix" values="0 0 0 0 0 0 0 0 0 0 0 0 0 0 0 0 0 0 127 0" result="hardAlpha"/>
<feOffset dx="-2" dy="-2"/>
<feGaussianBlur stdDeviation="2"/>
<feColorMatrix type="matrix" values="0 0 0 0 0.0509804 0 0 0 0 0.14902 0 0 0 0 0.207843 0 0 0 0.9 0"/>
<feBlend mode="normal" in2="effect1_dropShadow_9_646" result="effect2_dropShadow_9_646"/>
<feColorMatrix in="SourceAlpha" type="matrix" values="0 0 0 0 0 0 0 0 0 0 0 0 0 0 0 0 0 0 127 0" result="hardAlpha"/>
<feOffset dx="2" dy="-2"/>
<feGaussianBlur stdDeviation="2"/>
<feColorMatrix type="matrix" values="0 0 0 0 0.0117647 0 0 0 0 0.0392157 0 0 0 0 0.0509804 0 0 0 0.2 0"/>
<feBlend mode="normal" in2="effect2_dropShadow_9_646" result="effect3_dropShadow_9_646"/>
<feColorMatrix in="SourceAlpha" type="matrix" values="0 0 0 0 0 0 0 0 0 0 0 0 0 0 0 0 0 0 127 0" result="hardAlpha"/>
<feOffset dx="-2" dy="2"/>
<feGaussianBlur stdDeviation="2"/>
<feColorMatrix type="matrix" values="0 0 0 0 0.0117647 0 0 0 0 0.0392157 0 0 0 0 0.0509804 0 0 0 0.2 0"/>
<feBlend mode="normal" in2="effect3_dropShadow_9_646" result="effect4_dropShadow_9_646"/>
<feBlend mode="normal" in="SourceGraphic" in2="effect4_dropShadow_9_646" result="shape"/>
<feColorMatrix in="SourceAlpha" type="matrix" values="0 0 0 0 0 0 0 0 0 0 0 0 0 0 0 0 0 0 127 0" result="hardAlpha"/>
<feOffset dx="-1" dy="-1"/>
<feGaussianBlur stdDeviation="1"/>
<feComposite in2="hardAlpha" operator="arithmetic" k2="-1" k3="1"/>
<feColorMatrix type="matrix" values="0 0 0 0 0.0117647 0 0 0 0 0.0392157 0 0 0 0 0.0509804 0 0 0 0.5 0"/>
<feBlend mode="normal" in2="shape" result="effect5_innerShadow_9_646"/>
<feColorMatrix in="SourceAlpha" type="matrix" values="0 0 0 0 0 0 0 0 0 0 0 0 0 0 0 0 0 0 127 0" result="hardAlpha"/>
<feOffset dx="1" dy="1"/>
<feGaussianBlur stdDeviation="1"/>
<feComposite in2="hardAlpha" operator="arithmetic" k2="-1" k3="1"/>
<feColorMatrix type="matrix" values="0 0 0 0 0.0509804 0 0 0 0 0.14902 0 0 0 0 0.207843 0 0 0 0.3 0"/>
<feBlend mode="normal" in2="effect5_innerShadow_9_646" result="effect6_innerShadow_9_646"/>
</filter>
<filter id="filter7_ddiiii_9_646" x="446.973" y="357.04" width="256.115" height="162.06" filterUnits="userSpaceOnUse" color-interpolation-filters="sRGB">
<feFlood flood-opacity="0" result="BackgroundImageFix"/>
<feColorMatrix in="SourceAlpha" type="matrix" values="0 0 0 0 0 0 0 0 0 0 0 0 0 0 0 0 0 0 127 0" result="hardAlpha"/>
<feOffset dx="-2" dy="-2"/>
<feGaussianBlur stdDeviation="1.5"/>
<feColorMatrix type="matrix" values="0 0 0 0 0.0196078 0 0 0 0 0.0431373 0 0 0 0 0.054902 0 0 0 0.5 0"/>
<feBlend mode="normal" in2="BackgroundImageFix" result="effect1_dropShadow_9_646"/>
<feColorMatrix in="SourceAlpha" type="matrix" values="0 0 0 0 0 0 0 0 0 0 0 0 0 0 0 0 0 0 127 0" result="hardAlpha"/>
<feOffset dx="2" dy="2"/>
<feGaussianBlur stdDeviation="1.5"/>
<feColorMatrix type="matrix" values="0 0 0 0 0.0745098 0 0 0 0 0.168627 0 0 0 0 0.219608 0 0 0 0.3 0"/>
<feBlend mode="normal" in2="effect1_dropShadow_9_646" result="effect2_dropShadow_9_646"/>
<feBlend mode="normal" in="SourceGraphic" in2="effect2_dropShadow_9_646" result="shape"/>
<feColorMatrix in="SourceAlpha" type="matrix" values="0 0 0 0 0 0 0 0 0 0 0 0 0 0 0 0 0 0 127 0" result="hardAlpha"/>
<feOffset dx="50" dy="50"/>
<feGaussianBlur stdDeviation="62.5"/>
<feComposite in2="hardAlpha" operator="arithmetic" k2="-1" k3="1"/>
<feColorMatrix type="matrix" values="0 0 0 0 0.0196078 0 0 0 0 0.0431373 0 0 0 0 0.054902 0 0 0 0.9 0"/>
<feBlend mode="normal" in2="shape" result="effect3_innerShadow_9_646"/>
<feColorMatrix in="SourceAlpha" type="matrix" values="0 0 0 0 0 0 0 0 0 0 0 0 0 0 0 0 0 0 127 0" result="hardAlpha"/>
<feOffset dx="-50" dy="-50"/>
<feGaussianBlur stdDeviation="50"/>
<feComposite in2="hardAlpha" operator="arithmetic" k2="-1" k3="1"/>
<feColorMatrix type="matrix" values="0 0 0 0 0.0745098 0 0 0 0 0.168627 0 0 0 0 0.219608 0 0 0 0.9 0"/>
<feBlend mode="normal" in2="effect3_innerShadow_9_646" result="effect4_innerShadow_9_646"/>
<feColorMatrix in="SourceAlpha" type="matrix" values="0 0 0 0 0 0 0 0 0 0 0 0 0 0 0 0 0 0 127 0" result="hardAlpha"/>
<feOffset dx="50" dy="-50"/>
<feGaussianBlur stdDeviation="50"/>
<feComposite in2="hardAlpha" operator="arithmetic" k2="-1" k3="1"/>
<feColorMatrix type="matrix" values="0 0 0 0 0.0196078 0 0 0 0 0.0431373 0 0 0 0 0.054902 0 0 0 0.2 0"/>
<feBlend mode="normal" in2="effect4_innerShadow_9_646" result="effect5_innerShadow_9_646"/>
<feColorMatrix in="SourceAlpha" type="matrix" values="0 0 0 0 0 0 0 0 0 0 0 0 0 0 0 0 0 0 127 0" result="hardAlpha"/>
<feOffset dx="-50" dy="50"/>
<feGaussianBlur stdDeviation="50"/>
<feComposite in2="hardAlpha" operator="arithmetic" k2="-1" k3="1"/>
<feColorMatrix type="matrix" values="0 0 0 0 0.0196078 0 0 0 0 0.0431373 0 0 0 0 0.054902 0 0 0 0.2 0"/>
<feBlend mode="normal" in2="effect5_innerShadow_9_646" result="effect6_innerShadow_9_646"/>
</filter>
<linearGradient id="paint0_linear_9_646" x1="446" y1="313" x2="702.6" y2="569.6" gradientUnits="userSpaceOnUse">
<stop stop-color="#081923"/>
<stop offset="1" stop-color="#08171F"/>
</linearGradient>
<linearGradient id="paint1_linear_9_646" x1="1050" y1="503" x2="1078.8" y2="531.8" gradientUnits="userSpaceOnUse">
<stop stop-color="#081923"/>
<stop offset="1" stop-color="#08171F"/>
</linearGradient>
<linearGradient id="paint2_linear_9_646" x1="1102.5" y1="503" x2="1131.3" y2="531.8" gradientUnits="userSpaceOnUse">
<stop stop-color="#081923"/>
<stop offset="1" stop-color="#08171F"/>
</linearGradient>
<linearGradient id="paint3_linear_9_646" x1="1050" y1="554.1" x2="1078.8" y2="582.9" gradientUnits="userSpaceOnUse">
<stop stop-color="#081923"/>
<stop offset="1" stop-color="#08171F"/>
</linearGradient>
<linearGradient id="paint4_linear_9_646" x1="1102.5" y1="554.1" x2="1131.3" y2="582.9" gradientUnits="userSpaceOnUse">
<stop stop-color="#081923"/>
<stop offset="1" stop-color="#08171F"/>
</linearGradient>
<linearGradient id="paint5_linear_9_646" x1="1050" y1="605.2" x2="1078.8" y2="634" gradientUnits="userSpaceOnUse">
<stop stop-color="#081923"/>
<stop offset="1" stop-color="#08171F"/>
</linearGradient>
<linearGradient id="paint6_linear_9_646" x1="1102.5" y1="605.2" x2="1131.3" y2="634" gradientUnits="userSpaceOnUse">
<stop stop-color="#081923"/>
<stop offset="1" stop-color="#08171F"/>
</linearGradient>
<clipPath id="clip0_9_646">
<rect width="296.8" height="296.8" fill="white" transform="translate(426 293)"/>
</clipPath>
<clipPath id="clip1_9_646">
<rect width="792.7" height="294.2" fill="white"/>
</clipPath>
<clipPath id="clip2_9_646">
<rect width="332.1" height="371.3" fill="white" transform="translate(392 589)"/>
</clipPath>
<clipPath id="clip3_9_646">
<rect width="806.6" height="931.9" fill="white" transform="translate(192 172)"/>
</clipPath>
<clipPath id="clip4_9_646">
<rect width="652.1" height="105.4" fill="white" transform="translate(1097 784)"/>
</clipPath>
<clipPath id="clip5_9_646">
<rect width="543.2" height="210.5" fill="white" transform="translate(1046 47)"/>
</clipPath>
</defs>
</svg>
