<svg xmlns="http://www.w3.org/2000/svg" viewBox="0 0 290.79 210.95">
    <g id="ferroviari">
        <polygon points="17.6 27.94 290.29 27.94 290.29 210.45 0.5 210.45 0.5 44.88 17.6 27.94" class="strk" />
        <rect x="0.5" y="0.5" width="92.75" height="22.05" class="strk" />
        <rect x="99.02" y="0.5" width="92.75" height="22.05" class="strk" />
        <rect x="197.54" y="0.5" width="92.75" height="22.05" class="strk" />
        <line x1="0.5" y1="195.57" x2="290.29" y2="195.57" class="strk" />
        <line x1="160.21" y1="27.94" x2="160.21" y2="195.57" class="strk" />
        <rect x="0.5" y="130.92" width="35.25" height="64.65" class="strk" />
        <rect x="35.75" y="130.92" width="12.73" height="64.65" class="strk" />
        <rect x="48.49" y="130.92" width="111.73" height="64.65" class="strk" />
        <rect x="257.35" y="27.94" width="32.94" height="83.82" class="strk" />
        <rect x="160.21" y="111.75" width="130.08" height="83.82" class="strk" />
        <circle cx="28.56" cy="56.99" r="18.48" class="strk" />
        <circle cx="80.09" cy="56.99" r="18.48" class="strk" />
        <circle cx="131.61" cy="56.99" r="18.48" class="strk" />
        <circle cx="28.55" cy="99.67" r="18.48" class="strk" />
        <circle cx="80.09" cy="99.67" r="18.48" class="strk" />
        <circle cx="131.61" cy="99.67" r="18.48" class="strk" />
        <rect x="22.23" y="5.65" width="49.29" height="11.75" rx="5.88" class="filled" />
        <rect x="7" y="137.12" width="22.25" height="12.08" class="filled" />
        <rect x="50.34" y="163.39" width="30.6" height="19.57" transform="translate(238.82 107.53) rotate(90)" class="strk" />
        <rect x="76.01" y="163.39" width="30.6" height="19.57" transform="translate(264.49 81.86) rotate(90)" class="strk" />
        <rect x="109.41" y="146.35" width="43.87" height="40.38" transform="translate(297.88 35.2) rotate(90)" class="strk" />
        <rect x="7" y="156.76" width="22.25" height="12.08" class="filled" />
        <rect x="7" y="176.39" width="22.25" height="12.08" class="filled" />
        <rect x="169.4" y="119.99" width="16" height="8.42" class="filled" />
        <rect x="169.4" y="134.72" width="16" height="8.42" class="filled" />
        <rect x="169.4" y="149.45" width="16" height="8.42" class="filled" />
        <rect x="169.4" y="164.18" width="16" height="8.42" class="strk" />
        <rect x="169.4" y="178.92" width="16" height="8.42" class="filled" />
        <rect x="192.16" y="119.99" width="16" height="8.42" class="strk" />
        <rect x="192.16" y="134.72" width="16" height="8.42" class="filled" />
        <rect x="192.16" y="149.45" width="16" height="8.42" class="filled" />
        <rect x="192.16" y="164.18" width="16" height="8.42" class="filled" />
        <rect x="192.16" y="178.92" width="16" height="8.42" class="filled" />
        <rect x="214.91" y="119.99" width="16" height="8.42" class="filled" />
        <rect x="265.82" y="96.25" width="16" height="8.42" class="filled" />
        <rect x="265.82" y="35.87" width="16" height="53.65" rx="3.96" class="strk" />
        <rect x="214.91" y="134.72" width="16" height="8.42" class="filled" />
        <rect x="214.91" y="149.45" width="16" height="8.42" class="strk" />
        <rect x="214.91" y="164.18" width="16" height="8.42" class="filled" />
        <rect x="214.91" y="178.92" width="16" height="8.42" class="filled" />
        <circle cx="131.61" cy="99.67" r="3.97" class="filled" />
        <circle cx="80.09" cy="99.67" r="3.97" class="filled" />
        <circle cx="28.56" cy="99.67" r="3.97" class="filled" />
        <circle cx="131.61" cy="56.99" r="3.97" class="strk" />
        <circle cx="80.09" cy="56.99" r="3.97" class="strk" />
        <circle cx="28.56" cy="56.99" r="3.97" class="strk" />
        <line x1="31.75" y1="59.35" x2="39.3" y2="66.89" class="strk" />
        <line x1="76.11" y1="56.99" x2="65.53" y2="56.99" class="strk" />
        <line x1="134.85" y1="54.7" x2="143.07" y2="47.47" class="strk" />
        <line x1="107.45" y1="195.57" x2="107.45" y2="210.45" class="strk" />
        <circle cx="117.42" cy="182.2" r="2.28" class="strk" />
        <circle cx="144.25" cy="151.39" r="2.28" class="strk" />
        <polyline points="119.7 182.19 144.25 182.19 144.25 175.44 139.05 170.23 117.42 170.23 117.42 155.36 122.32 155.36 130.24 163.29 144.25 163.29 144.25 153.66" class="strk" />
        <polygon points="119.49 16.64 109.76 16.64 119.69 6.4 129.43 6.4 119.49 16.64" class="filled" />
        <polygon points="136.69 16.64 126.96 16.64 136.9 6.4 146.63 6.4 136.69 16.64" class="filled" />
        <polygon points="153.89 16.64 144.16 16.64 154.1 6.4 163.83 6.4 153.89 16.64" class="filled" />
        <polygon points="171.09 16.64 161.36 16.64 171.3 6.4 181.03 6.4 171.09 16.64" class="filled" />
        <path d="M51.51,112.07v7a4,4,0,0,1-4,4H9.63a4,4,0,0,1-4.05-4v-7" class="strk" />
        <path d="M103.05,112.07v7a4,4,0,0,1-4,4H61.17a4,4,0,0,1-4.05-4v-7" class="strk" />
        <path d="M154.58,112.07v7a4.05,4.05,0,0,1-4.06,4H112.69a4,4,0,0,1-4-4v-7" class="strk" />
        <circle cx="208.78" cy="70.27" r="32.48" class="strk" />
        <path d="M209,37.79a38.61,38.61,0,0,1,0,64.95" class="strk" />
        <path d="M208.8,102.71a38.61,38.61,0,0,1,0-64.89" class="strk" />
        <path d="M183.93,91.17a38.61,38.61,0,0,1,49.7,0" class="strk" />
        <path d="M233,48.68a38.62,38.62,0,0,1-48.52,0" class="strk" />
        <line x1="208.78" y1="37.79" x2="208.78" y2="102.74" class="strk" />
        <line x1="176.3" y1="70.27" x2="241.26" y2="70.27" class="strk" />
        <circle cx="210.61" cy="11.52" r="5.68" class="strk" />
        <circle cx="276.14" cy="11.52" r="5.68" class="strk" />
        <line x1="215.16" y1="8.12" x2="271.58" y2="8.12" class="strk" />
        <polyline points="247.92 11.69 252.45 11.69 255.38 14.62 271.37 14.62" class="strk" />
        <polyline points="239.92 11.69 235.37 11.69 232.46 14.6 215.38 14.6" class="strk" />
        <circle cx="244.92" cy="185.57" r="1.69" class="filled" />
        <circle cx="253.39" cy="185.57" r="1.69" class="filled" />
        <circle cx="275.51" cy="185.57" r="1.69" class="filled" />
        <circle cx="255.08" cy="121.47" r="1.69" class="filled" />
        <circle cx="275.51" cy="121.47" r="1.69" class="filled" />
        <circle cx="265.29" cy="121.47" r="1.69" class="filled" />
        <circle cx="275.51" cy="149.78" r="1.69" class="filled" />
        <circle cx="275.51" cy="173.87" r="1.69" class="filled" />
        <circle cx="248.3" cy="154.78" r="1.69" class="filled" />
        <circle cx="243.23" cy="121.47" r="1.69" class="filled" />
        <polyline points="244.92 185.57 244.92 168.78 255.08 158.62 255.08 121.47" class="strk" />
        <polyline points="275.5 185.57 265.87 175.93 265.87 148.8 275.62 139.05 275.62 121.47" class="strk" />
        <polyline points="248.3 154.78 243.11 149.58 243.11 121.47" class="strk" />
        <polyline points="253.39 185.57 253.39 172.18 260.69 164.88 260.69 141.22 265.38 136.53 265.38 121.47" class="strk" />
        <polyline points="275.5 173.87 271.81 170.18 271.71 153.57 275.5 149.78" class="strk" />
        <line x1="55.86" y1="150.73" x2="101.1" y2="150.73" class="strk" />
        <line x1="55.86" y1="144.61" x2="101.1" y2="144.61" class="strk" />
        <line x1="55.86" y1="137.91" x2="151.53" y2="137.91" class="strk" />
        <polygon points="0.5 39.55 12.14 27.91 0.5 27.91 0.5 39.55" class="filled" />
    </g>
</svg>
