<svg xmlns="http://www.w3.org/2000/svg" viewBox="0 0 239.95 202.34">
    <g id="fotovoltaic">
        <rect x="0.5" y="0.5" width="159.09" height="201.28" class="strk" />
        <rect x="159.59" y="0.5" width="79.86" height="201.28" class="strk" />
        <line x1="213.19" y1="0.5" x2="213.19" y2="201.78" class="strk" />
        <line x1="186.84" y1="0.5" x2="186.84" y2="201.78" class="strk" />
        <rect x="42.71" y="35.56" width="74.67" height="22.96" class="strk" />
        <circle cx="7.59" cy="7.59" r="3.09" class="strk" />
        <circle cx="173.22" cy="7.59" r="3.09" class="strk" />
        <circle cx="173.22" cy="194.7" r="3.09" class="strk" />
        <circle cx="200.02" cy="7.59" r="3.09" class="strk" />
        <circle cx="200.02" cy="194.7" r="3.09" class="strk" />
        <circle cx="226.31" cy="7.59" r="3.09" class="strk" />
        <circle cx="226.31" cy="194.7" r="3.09" class="strk" />
        <circle cx="226.31" cy="74.97" r="2.19" class="strk" />
        <circle cx="226.31" cy="105.36" r="2.19" class="strk" />
        <path d="M227.84,100.8,223,99.17a2.88,2.88,0,0,1-2-2.74V83.89a2.89,2.89,0,0,1,2-2.74l4.88-1.62a2.88,2.88,0,0,1,3.8,2.74V98.06A2.89,2.89,0,0,1,227.84,100.8Z" class="strk" />
        <path d="M233.83,80.44V99.88a4.08,4.08,0,0,1-3.05,3.94,4.61,4.61,0,0,1,.26,1.54,4.73,4.73,0,1,1-8-3.42l-1.46-.49a4.08,4.08,0,0,1-2.79-3.86V82.74a4.07,4.07,0,0,1,2.79-3.86l1.46-.49A4.73,4.73,0,1,1,231,75a4.61,4.61,0,0,1-.26,1.54A4.06,4.06,0,0,1,233.83,80.44Z" class="strk" />
        <line x1="224.12" y1="84.09" x2="228.5" y2="84" class="strk" />
        <line x1="224.12" y1="86.08" x2="228.5" y2="86" class="strk" />
        <line x1="224.12" y1="88.07" x2="228.5" y2="87.99" class="strk" />
        <line x1="224.12" y1="92.06" x2="228.5" y2="91.98" class="strk" />
        <line x1="224.12" y1="94.06" x2="228.5" y2="93.97" class="strk" />
        <line x1="224.12" y1="90.07" x2="228.5" y2="89.99" class="strk" />
        <line x1="224.12" y1="96.05" x2="228.5" y2="95.97" class="strk" />
        <circle cx="226.31" cy="121.39" r="2.19" class="strk" />
        <circle cx="226.31" cy="151.78" r="2.19" class="strk" />
        <path d="M227.84,147.22,223,145.59a2.88,2.88,0,0,1-2-2.74V130.31a2.89,2.89,0,0,1,2-2.74l4.88-1.62a2.88,2.88,0,0,1,3.8,2.73v15.8A2.89,2.89,0,0,1,227.84,147.22Z" class="strk" />
        <path d="M233.83,126.86V146.3a4.08,4.08,0,0,1-3.05,3.94,4.61,4.61,0,0,1,.26,1.54,4.73,4.73,0,1,1-8-3.42l-1.46-.49a4.08,4.08,0,0,1-2.79-3.86V129.16a4.07,4.07,0,0,1,2.79-3.86l1.46-.49a4.73,4.73,0,1,1,8-3.42,4.65,4.65,0,0,1-.26,1.54A4.06,4.06,0,0,1,233.83,126.86Z" class="strk" />
        <line x1="224.12" y1="130.5" x2="228.5" y2="130.42" class="strk" />
        <line x1="224.12" y1="132.5" x2="228.5" y2="132.42" class="strk" />
        <line x1="224.12" y1="134.49" x2="228.5" y2="134.41" class="strk" />
        <line x1="224.12" y1="138.48" x2="228.5" y2="138.4" class="strk" />
        <line x1="224.12" y1="140.48" x2="228.5" y2="140.39" class="strk" />
        <line x1="224.12" y1="136.49" x2="228.5" y2="136.4" class="strk" />
        <line x1="224.12" y1="142.47" x2="228.5" y2="142.39" class="strk" />
        <circle cx="199.51" cy="74.97" r="2.19" class="strk" />
        <circle cx="199.51" cy="105.36" r="2.19" class="strk" />
        <path d="M201,100.8l-4.88-1.63a2.88,2.88,0,0,1-2-2.74V83.89a2.89,2.89,0,0,1,2-2.74L201,79.53a2.88,2.88,0,0,1,3.8,2.74V98.06A2.89,2.89,0,0,1,201,100.8Z" class="strk" />
        <path d="M207,80.44V99.88a4.08,4.08,0,0,1-3.05,3.94,4.62,4.62,0,0,1,.27,1.54,4.73,4.73,0,1,1-8-3.42l-1.46-.49A4.06,4.06,0,0,1,192,97.59V82.74a4.05,4.05,0,0,1,2.79-3.86l1.46-.49a4.73,4.73,0,1,1,8-3.42,4.62,4.62,0,0,1-.27,1.54A4.06,4.06,0,0,1,207,80.44Z" class="strk" />
        <line x1="197.32" y1="84.09" x2="201.7" y2="84" class="strk" />
        <line x1="197.32" y1="86.08" x2="201.7" y2="86" class="strk" />
        <line x1="197.32" y1="88.07" x2="201.7" y2="87.99" class="strk" />
        <line x1="197.32" y1="92.06" x2="201.7" y2="91.98" class="strk" />
        <line x1="197.32" y1="94.06" x2="201.7" y2="93.97" class="strk" />
        <line x1="197.32" y1="90.07" x2="201.7" y2="89.99" class="strk" />
        <line x1="197.32" y1="96.05" x2="201.7" y2="95.97" class="strk" />
        <circle cx="199.51" cy="121.39" r="2.19" class="strk" />
        <circle cx="199.51" cy="151.78" r="2.19" class="strk" />
        <path d="M201,147.22l-4.88-1.63a2.88,2.88,0,0,1-2-2.74V130.31a2.89,2.89,0,0,1,2-2.74L201,126a2.88,2.88,0,0,1,3.8,2.73v15.8A2.89,2.89,0,0,1,201,147.22Z" class="strk" />
        <path d="M207,126.86V146.3a4.08,4.08,0,0,1-3.05,3.94,4.62,4.62,0,0,1,.27,1.54,4.73,4.73,0,1,1-8-3.42l-1.46-.49A4.07,4.07,0,0,1,192,144V129.16a4.05,4.05,0,0,1,2.79-3.86l1.46-.49a4.73,4.73,0,1,1,8-3.42,4.66,4.66,0,0,1-.27,1.54A4.06,4.06,0,0,1,207,126.86Z" class="strk" />
        <line x1="197.32" y1="130.5" x2="201.7" y2="130.42" class="strk" />
        <line x1="197.32" y1="132.5" x2="201.7" y2="132.42" class="strk" />
        <line x1="197.32" y1="134.49" x2="201.7" y2="134.41" class="strk" />
        <line x1="197.32" y1="138.48" x2="201.7" y2="138.4" class="strk" />
        <line x1="197.32" y1="140.48" x2="201.7" y2="140.39" class="strk" />
        <line x1="197.32" y1="136.49" x2="201.7" y2="136.4" class="strk" />
        <line x1="197.32" y1="142.47" x2="201.7" y2="142.39" class="strk" />
        <circle cx="173.22" cy="74.97" r="2.19" class="strk" />
        <circle cx="173.22" cy="105.36" r="2.19" class="strk" />
        <path d="M174.75,100.8l-4.89-1.63a2.87,2.87,0,0,1-2-2.74V83.89a2.88,2.88,0,0,1,2-2.74l4.89-1.62a2.88,2.88,0,0,1,3.8,2.74V98.06A2.89,2.89,0,0,1,174.75,100.8Z" class="strk" />
        <path d="M180.73,80.44V99.88a4.08,4.08,0,0,1-3,3.94,4.62,4.62,0,0,1,.27,1.54,4.73,4.73,0,1,1-8-3.42l-1.46-.49a4.06,4.06,0,0,1-2.79-3.86V82.74a4.05,4.05,0,0,1,2.79-3.86l1.46-.49A4.73,4.73,0,1,1,178,75a4.62,4.62,0,0,1-.27,1.54A4.06,4.06,0,0,1,180.73,80.44Z" class="strk" />
        <line x1="171.03" y1="84.09" x2="175.41" y2="84" class="strk" />
        <line x1="171.03" y1="86.08" x2="175.41" y2="86" class="strk" />
        <line x1="171.03" y1="88.07" x2="175.41" y2="87.99" class="strk" />
        <line x1="171.03" y1="92.06" x2="175.41" y2="91.98" class="strk" />
        <line x1="171.03" y1="94.06" x2="175.41" y2="93.97" class="strk" />
        <line x1="171.03" y1="90.07" x2="175.41" y2="89.99" class="strk" />
        <line x1="171.03" y1="96.05" x2="175.41" y2="95.97" class="strk" />
        <circle cx="21.57" cy="65.11" r="2.19" class="strk" />
        <circle cx="21.57" cy="95.5" r="2.19" class="strk" />
        <path d="M23.1,91l-4.89-1.63a2.88,2.88,0,0,1-2-2.74V74a2.87,2.87,0,0,1,2-2.74l4.89-1.63a2.89,2.89,0,0,1,3.8,2.74v15.8A2.89,2.89,0,0,1,23.1,91Z" class="strk" />
        <path d="M29.08,70.59V90A4.06,4.06,0,0,1,26,94a4.66,4.66,0,0,1,.27,1.54,4.73,4.73,0,1,1-8-3.42l-1.46-.49a4,4,0,0,1-2.79-3.85V72.89A4.07,4.07,0,0,1,16.84,69l1.46-.49a4.73,4.73,0,1,1,8-3.42A4.62,4.62,0,0,1,26,66.65,4.08,4.08,0,0,1,29.08,70.59Z" class="strk" />
        <line x1="19.38" y1="74.23" x2="23.76" y2="74.15" class="strk" />
        <line x1="19.38" y1="76.23" x2="23.76" y2="76.14" class="strk" />
        <line x1="19.38" y1="78.22" x2="23.76" y2="78.14" class="strk" />
        <line x1="19.38" y1="82.21" x2="23.76" y2="82.13" class="strk" />
        <line x1="19.38" y1="84.2" x2="23.76" y2="84.12" class="strk" />
        <line x1="19.38" y1="80.21" x2="23.76" y2="80.13" class="strk" />
        <line x1="19.38" y1="86.2" x2="23.76" y2="86.11" class="strk" />
        <circle cx="173.22" cy="121.39" r="2.19" class="strk" />
        <circle cx="173.22" cy="151.78" r="2.19" class="strk" />
        <path d="M174.75,147.22l-4.89-1.63a2.87,2.87,0,0,1-2-2.74V130.31a2.88,2.88,0,0,1,2-2.74l4.89-1.62a2.88,2.88,0,0,1,3.8,2.73v15.8A2.89,2.89,0,0,1,174.75,147.22Z" class="strk" />
        <path d="M180.73,126.86V146.3a4.08,4.08,0,0,1-3,3.94,4.62,4.62,0,0,1,.27,1.54,4.73,4.73,0,1,1-8-3.42l-1.46-.49A4.07,4.07,0,0,1,165.7,144V129.16a4.05,4.05,0,0,1,2.79-3.86l1.46-.49a4.73,4.73,0,1,1,8-3.42,4.66,4.66,0,0,1-.27,1.54A4.06,4.06,0,0,1,180.73,126.86Z" class="strk" />
        <line x1="171.03" y1="130.5" x2="175.41" y2="130.42" class="strk" />
        <line x1="171.03" y1="132.5" x2="175.41" y2="132.42" class="strk" />
        <line x1="171.03" y1="134.49" x2="175.41" y2="134.41" class="strk" />
        <line x1="171.03" y1="138.48" x2="175.41" y2="138.4" class="strk" />
        <line x1="171.03" y1="140.48" x2="175.41" y2="140.39" class="strk" />
        <line x1="171.03" y1="136.49" x2="175.41" y2="136.4" class="strk" />
        <line x1="171.03" y1="142.47" x2="175.41" y2="142.39" class="strk" />
        <rect x="165.7" y="15.53" width="15.03" height="3.01" class="strk" />
        <rect x="192.5" y="15.53" width="15.03" height="3.01" class="strk" />
        <rect x="218.8" y="15.53" width="15.03" height="3.01" class="strk" />
        <circle cx="138.83" cy="30.33" r="6.39" class="strk" />
        <circle cx="138.83" cy="50.94" r="6.39" class="strk" />
        <circle cx="138.83" cy="71.55" r="6.39" class="strk" />
        <circle cx="138.83" cy="92.16" r="6.39" class="strk" />
        <circle cx="138.83" cy="30.33" r="3.09" style="fill:#3694e0" />
        <circle cx="126.86" cy="30.33" r="1.4" style="fill:#3694e0" />
        <circle cx="126.86" cy="50.94" r="1.4" style="fill:#3694e0" />
        <circle cx="126.86" cy="71.55" r="1.4" style="fill:#3694e0" />
        <circle cx="126.86" cy="92.16" r="1.4" style="fill:#3694e0" />
        <circle cx="167.89" cy="42.34" r="1.4" style="fill:#3694e0" />
        <circle cx="167.89" cy="51.74" r="1.4" style="fill:#3694e0" />
        <line x1="172.1" y1="42.34" x2="179.75" y2="42.34" class="strk" />
        <line x1="172.1" y1="51.74" x2="179.75" y2="51.74" class="strk" />
        <circle cx="194.79" cy="42.34" r="1.4" style="fill:#3694e0" />
        <circle cx="194.79" cy="51.74" r="1.4" style="fill:#3694e0" />
        <line x1="198.99" y1="42.34" x2="206.65" y2="42.34" class="strk" />
        <line x1="198.99" y1="51.74" x2="206.65" y2="51.74" class="strk" />
        <circle cx="221.08" cy="42.34" r="1.4" style="fill:#3694e0" />
        <circle cx="221.08" cy="51.74" r="1.4" style="fill:#3694e0" />
        <line x1="225.28" y1="42.34" x2="232.94" y2="42.34" class="strk" />
        <line x1="225.28" y1="51.74" x2="232.94" y2="51.74" class="strk" />
        <path d="M.5.5H14.78a0,0,0,0,1,0,0V9.82a5,5,0,0,1-5,5H.5a0,0,0,0,1,0,0V.5A0,0,0,0,1,.5.5Z" class="strk" />
        <circle cx="152.46" cy="7.59" r="3.09" class="strk" />
        <path d="M145.26.5h14.28a0,0,0,0,1,0,0V9.82a5,5,0,0,1-5,5h-9.32a0,0,0,0,1,0,0V.5A0,0,0,0,1,145.26.5Z" transform="translate(160.05 -144.76) rotate(90)" class="strk" />
        <circle cx="152.5" cy="194.75" r="3.09" class="strk" />
        <path d="M145.31,187.55h14.28a0,0,0,0,1,0,0v9.32a5,5,0,0,1-5,5h-9.32a0,0,0,0,1,0,0V187.55A0,0,0,0,1,145.31,187.55Z" transform="translate(304.9 389.39) rotate(180)" class="strk" />
        <circle cx="7.59" cy="194.7" r="3.09" class="strk" />
        <path d="M.5,187.5H14.78a0,0,0,0,1,0,0v9.32a5,5,0,0,1-5,5H.5a0,0,0,0,1,0,0V187.5A0,0,0,0,1,.5,187.5Z" transform="translate(-187 202.28) rotate(-90)" class="strk" />
        <rect x="37.02" y="119.2" width="8.5" height="54.54" class="strk" />
        <rect x="19.51" y="119.2" width="8.5" height="40.33" class="strk" />
        <rect x="78.39" y="139.36" width="8.5" height="45.02" class="strk" />
        <rect x="96.23" y="139.36" width="8.5" height="45.02" class="strk" />
        <rect x="114.08" y="139.36" width="8.5" height="45.02" class="strk" />
        <rect x="131.92" y="120.86" width="8.5" height="45.02" class="strk" />
        <rect x="78.39" y="107.55" width="8.5" height="20.16" class="strk" />
        <rect x="96.23" y="107.55" width="8.5" height="20.16" class="strk" />
        <rect x="114.08" y="107.55" width="8.5" height="20.16" class="strk" />
        <rect x="54.53" y="129.2" width="8.5" height="55.19" class="strk" />
        <circle cx="15.67" cy="36.24" r="1.4" style="fill:#3694e0" />
        <circle cx="15.67" cy="45.64" r="1.4" style="fill:#3694e0" />
        <line x1="19.87" y1="36.24" x2="27.53" y2="36.24" class="strk" />
        <line x1="19.87" y1="45.64" x2="27.53" y2="45.64" class="strk" />
        <line x1="98" y1="6.54" x2="98" y2="11.89" class="strk" />
        <line x1="92.46" y1="6.54" x2="92.46" y2="11.89" class="strk" />
        <line x1="86.92" y1="6.54" x2="86.92" y2="11.89" class="strk" />
        <line x1="75.85" y1="6.54" x2="75.85" y2="11.89" class="strk" />
        <line x1="70.31" y1="6.54" x2="70.31" y2="11.89" class="strk" />
        <line x1="81.38" y1="6.54" x2="81.38" y2="11.89" class="strk" />
        <line x1="64.77" y1="6.54" x2="64.77" y2="11.89" class="strk" />
        <line x1="95.32" y1="6.54" x2="95.32" y2="11.89" class="strk" />
        <line x1="89.78" y1="6.54" x2="89.78" y2="11.89" class="strk" />
        <line x1="84.24" y1="6.54" x2="84.24" y2="11.89" class="strk" />
        <line x1="73.17" y1="6.54" x2="73.17" y2="11.89" class="strk" />
        <line x1="67.63" y1="6.54" x2="67.63" y2="11.89" class="strk" />
        <line x1="78.71" y1="6.54" x2="78.71" y2="11.89" class="strk" />
        <line x1="62.09" y1="6.54" x2="62.09" y2="11.89" class="strk" />
        <line x1="41.27" y1="122.78" x2="41.27" y2="170.16" class="strk" />
        <line x1="58.78" y1="132.82" x2="58.78" y2="180.19" class="strk" />
        <line x1="82.64" y1="143.37" x2="82.64" y2="180.19" class="strk" />
        <line x1="100.48" y1="143.37" x2="100.48" y2="180.19" class="strk" />
        <line x1="118.32" y1="143.37" x2="118.32" y2="180.19" class="strk" />
        <line x1="136.17" y1="125.22" x2="136.17" y2="162.04" class="strk" />
        <line x1="82.64" y1="111.22" x2="82.64" y2="123.58" class="strk" />
        <line x1="100.48" y1="111.22" x2="100.48" y2="123.58" class="strk" />
        <line x1="118.32" y1="111.22" x2="118.32" y2="123.58" class="strk" />
        <line x1="23.7" y1="122.78" x2="23.7" y2="155.45" class="strk" />
        <path d="M159.59,164.22v21.53h79.86V164.22Zm21.14,12.25a2.12,2.12,0,0,1-2.12,2.12H167.83a2.12,2.12,0,0,1-2.13-2.12V173.8a2.12,2.12,0,0,1,2.13-2.12h10.78a2.12,2.12,0,0,1,2.12,2.12Zm26.86,0a2.12,2.12,0,0,1-2.12,2.12H194.68a2.12,2.12,0,0,1-2.12-2.12V173.8a2.12,2.12,0,0,1,2.12-2.12h10.79a2.12,2.12,0,0,1,2.12,2.12Zm26.86,0a2.12,2.12,0,0,1-2.13,2.12H221.54a2.12,2.12,0,0,1-2.12-2.12V173.8a2.12,2.12,0,0,1,2.12-2.12h10.78a2.12,2.12,0,0,1,2.13,2.12Z" class="filled" />
    </-g>
</svg>
