<svg width="299" height="119" viewBox="0 0 299 119" fill="none" xmlns="http://www.w3.org/2000/svg">
<path d="M0.5 92V0.375H18.75L40.4375 65.25C42.4375 71.2917 43.8958 75.8125 44.8125 78.8125C45.8542 75.4792 47.4792 70.5833 49.6875 64.125L71.625 0.375H87.9375V92H76.25V15.3125L49.625 92H38.6875L12.1875 14V92H0.5ZM105.562 117.562L104.312 107C106.771 107.667 108.917 108 110.75 108C113.25 108 115.25 107.583 116.75 106.75C118.25 105.917 119.479 104.75 120.438 103.25C121.146 102.125 122.292 99.3333 123.875 94.875C124.083 94.25 124.417 93.3333 124.875 92.125L99.6875 25.625H111.812L125.625 64.0625C127.417 68.9375 129.021 74.0625 130.438 79.4375C131.729 74.2708 133.271 69.2292 135.062 64.3125L149.25 25.625H160.5L135.25 93.125C132.542 100.417 130.438 105.438 128.938 108.188C126.938 111.896 124.646 114.604 122.062 116.312C119.479 118.062 116.396 118.938 112.812 118.938C110.646 118.938 108.229 118.479 105.562 117.562ZM170.062 117.438V25.625H180.312V34.25C182.729 30.875 185.458 28.3542 188.5 26.6875C191.542 24.9792 195.229 24.125 199.562 24.125C205.229 24.125 210.229 25.5833 214.562 28.5C218.896 31.4167 222.167 35.5417 224.375 40.875C226.583 46.1667 227.688 51.9792 227.688 58.3125C227.688 65.1042 226.458 71.2292 224 76.6875C221.583 82.1042 218.042 86.2708 213.375 89.1875C208.75 92.0625 203.875 93.5 198.75 93.5C195 93.5 191.625 92.7083 188.625 91.125C185.667 89.5417 183.229 87.5417 181.312 85.125V117.438H170.062ZM180.25 59.1875C180.25 67.7292 181.979 74.0417 185.438 78.125C188.896 82.2083 193.083 84.25 198 84.25C203 84.25 207.271 82.1458 210.812 77.9375C214.396 73.6875 216.188 67.125 216.188 58.25C216.188 49.7917 214.438 43.4583 210.938 39.25C207.479 35.0417 203.333 32.9375 198.5 32.9375C193.708 32.9375 189.458 35.1875 185.75 39.6875C182.083 44.1458 180.25 50.6458 180.25 59.1875ZM286.75 70.625L298.375 72.0625C296.542 78.8542 293.146 84.125 288.188 87.875C283.229 91.625 276.896 93.5 269.188 93.5C259.479 93.5 251.771 90.5208 246.062 84.5625C240.396 78.5625 237.562 70.1667 237.562 59.375C237.562 48.2083 240.438 39.5417 246.188 33.375C251.938 27.2083 259.396 24.125 268.562 24.125C277.438 24.125 284.688 27.1458 290.312 33.1875C295.938 39.2292 298.75 47.7292 298.75 58.6875C298.75 59.3542 298.729 60.3542 298.688 61.6875H249.188C249.604 68.9792 251.667 74.5625 255.375 78.4375C259.083 82.3125 263.708 84.25 269.25 84.25C273.375 84.25 276.896 83.1667 279.812 81C282.729 78.8333 285.042 75.375 286.75 70.625ZM249.812 52.4375H286.875C286.375 46.8542 284.958 42.6667 282.625 39.875C279.042 35.5417 274.396 33.375 268.688 33.375C263.521 33.375 259.167 35.1042 255.625 38.5625C252.125 42.0208 250.188 46.6458 249.812 52.4375Z" fill="white"/>
</svg>
