<svg xmlns="http://www.w3.org/2000/svg" viewBox="0 0 278.99 207.12">
    <g id="solar1">
        <path d="M124,142H84.08a4.72,4.72,0,0,0-3.33,1.38L73.08,151a4.7,4.7,0,0,0-1.37,3.32v39.93a4.72,4.72,0,0,0,1.37,3.33l7.67,7.66a4.67,4.67,0,0,0,3.33,1.38H124a4.67,4.67,0,0,0,3.33-1.38l7.67-7.66a4.73,4.73,0,0,0,1.38-3.33V154.32A4.71,4.71,0,0,0,135,151l-7.67-7.67A4.72,4.72,0,0,0,124,142Z" class="strk" />
        <path d="M195.06.5H155.13a4.71,4.71,0,0,0-3.32,1.38l-7.67,7.67a4.71,4.71,0,0,0-1.38,3.32V52.8a4.69,4.69,0,0,0,1.38,3.32l7.67,7.67a4.71,4.71,0,0,0,3.32,1.38h39.93a4.73,4.73,0,0,0,3.33-1.38l7.66-7.67a4.65,4.65,0,0,0,1.38-3.32V12.87a4.67,4.67,0,0,0-1.38-3.32l-7.66-7.67A4.73,4.73,0,0,0,195.06.5Z" class="strk" />
        <path d="M266.12.5H226.19a4.69,4.69,0,0,0-3.32,1.38L215.2,9.55a4.67,4.67,0,0,0-1.38,3.32V52.8a4.65,4.65,0,0,0,1.38,3.32l7.67,7.67a4.69,4.69,0,0,0,3.32,1.38h39.93a4.71,4.71,0,0,0,3.32-1.38l7.67-7.67a4.69,4.69,0,0,0,1.38-3.32V12.87a4.71,4.71,0,0,0-1.38-3.32l-7.67-7.67A4.71,4.71,0,0,0,266.12.5Z" class="strk" />
        <path d="M124,.5H84.08a4.72,4.72,0,0,0-3.33,1.38L73.08,9.55a4.7,4.7,0,0,0-1.37,3.32V52.8a4.68,4.68,0,0,0,1.37,3.32l7.67,7.67a4.72,4.72,0,0,0,3.33,1.38H124a4.72,4.72,0,0,0,3.33-1.38L135,56.12a4.69,4.69,0,0,0,1.38-3.32V12.87A4.71,4.71,0,0,0,135,9.55l-7.67-7.67A4.72,4.72,0,0,0,124,.5Z" class="strk" />
        <path d="M195.21,71.23H155.28A4.7,4.7,0,0,0,152,72.6l-7.67,7.67a4.72,4.72,0,0,0-1.38,3.33v39.92a4.72,4.72,0,0,0,1.38,3.33l7.67,7.67a4.71,4.71,0,0,0,3.32,1.38h39.93a4.69,4.69,0,0,0,3.32-1.38l7.67-7.67a4.67,4.67,0,0,0,1.38-3.33V83.6a4.67,4.67,0,0,0-1.38-3.33l-7.67-7.67A4.68,4.68,0,0,0,195.21,71.23Z" class="strk" />
        <path d="M124,71.23H84.08a4.71,4.71,0,0,0-3.33,1.37l-7.67,7.67a4.71,4.71,0,0,0-1.37,3.33v39.92a4.71,4.71,0,0,0,1.37,3.33l7.67,7.67a4.72,4.72,0,0,0,3.33,1.38H124a4.72,4.72,0,0,0,3.33-1.38l7.67-7.67a4.72,4.72,0,0,0,1.38-3.33V83.6A4.72,4.72,0,0,0,135,80.27l-7.67-7.67A4.71,4.71,0,0,0,124,71.23Z" class="strk" />
        <path d="M52.8,71.23H12.87A4.7,4.7,0,0,0,9.55,72.6L1.88,80.27A4.72,4.72,0,0,0,.5,83.6v39.92a4.72,4.72,0,0,0,1.38,3.33l7.67,7.67a4.71,4.71,0,0,0,3.32,1.38H52.8a4.69,4.69,0,0,0,3.32-1.38l7.67-7.67a4.72,4.72,0,0,0,1.38-3.33V83.6a4.72,4.72,0,0,0-1.38-3.33L56.12,72.6A4.68,4.68,0,0,0,52.8,71.23Z" class="strk" />
        <line x1="91.41" y1="0.5" x2="91.41" y2="206.62" class="strk" />
        <line x1="116.67" y1="0.5" x2="116.67" y2="206.62" class="strk" />
        <line x1="162.47" y1="0.5" x2="162.47" y2="135.9" class="strk" />
        <line x1="187.73" y1="0.5" x2="187.73" y2="135.9" class="strk" />
        <line x1="20.2" y1="71.23" x2="20.2" y2="135.9" class="strk" />
        <line x1="45.47" y1="71.23" x2="45.47" y2="135.9" class="strk" />
        <line x1="233.52" y1="0.5" x2="233.52" y2="65.17" class="strk" />
        <line x1="258.78" y1="0.5" x2="258.78" y2="65.17" class="strk" />
    </g>
</svg>
